<?xml version="1.0" encoding="UTF-8"?>
<svg version="1.1" viewBox="0 0 400 377.03" xmlns="http://www.w3.org/2000/svg">
<g fill-rule="evenodd">
<path d="m191.89 87.344c-0.208 0.085-7.595 2.388-16.415 5.118-28.165 8.716-28.192 8.727-26.61 10.308 1.261 1.262 41.739 13.897 44.534 13.902 2.775 4e-3 43.269-12.636 44.535-13.902 1.595-1.595 2.015-1.427-23.025-9.224-17.895-5.572-21.914-6.655-23.019-6.202m-52.606 20.168-0.79 0.79v36.598 36.598l1.037 1.127c1.133 1.232 45.563 15.488 48.268 15.488 2.55 0 2.415 2.246 2.304-38.235l-0.1-36.465-0.993-0.993c-0.813-0.812-5.149-2.292-23.774-8.114-26.26-8.209-24.895-7.851-25.952-6.794m82.983 6.796c-23.288 7.326-23.834 7.526-24.501 8.991-0.727 1.595-0.55 72.929 0.183 73.976 0.909 1.297 1.058 1.26 24.215-5.955 25.281-7.878 24.62-7.65 25.801-8.907l0.906-0.964v-36.291c0-40.437 0.163-38.015-2.561-37.951-0.922 0.022-11.025 3.006-24.043 7.101m-91.321 75.559c-1.349 0.422-10.603 3.309-20.566 6.417-24.134 7.527-24.003 7.435-14.817 10.453 15.791 5.189 37.694 11.754 39.213 11.754 1.609 0 40.729-11.898 43.529-13.239 1.55-0.742 1.694-2.024 0.306-2.728-2.082-1.057-42.595-13.469-43.891-13.447-0.726 0.012-2.425 0.367-3.774 0.79m116.42-0.073c-4.157 1.247-31.641 9.847-35.849 11.217-5.874 1.913-6.823 2.962-3.862 4.272 3.634 1.607 41.682 13.208 43.319 13.208 1.757 0 40.752-11.902 43.468-13.267 3.65-1.834 3.441-1.928-21.724-9.79-21.352-6.67-21.678-6.743-25.352-5.64m-166.83 19.679c-0.732 0.809-1.383 66.665-0.715 72.292 0.398 3.35-0.46 2.976 25.22 10.995 26.599 8.306 25.503 8.083 26.293 5.329 0.571-1.993 0.455-70.744-0.123-72.393-0.734-2.095-1.362-2.338-25.374-9.83-24.689-7.703-24.222-7.584-25.301-6.393m83.432 6.554c-19.742 6.19-23.529 7.489-24.245 8.317l-0.849 0.981v36.763 36.763l0.941 0.616c1.186 0.777-1.052 1.382 25.458-6.89 23.448-7.317 23.832-7.46 24.512-9.105 0.558-1.347 0.405-73.443-0.156-73.993-1.08-1.057-2.813-0.615-25.661 6.548m32.795-6.554c-0.84 0.928-1.343 70.527-0.533 73.538 0.574 2.13 0.384 2.056 25.176 9.807 26.721 8.353 25.542 8.134 26.173 4.869 0.42-2.175 0.414-69.081-7e-3 -71.261-0.531-2.751-0.437-2.713-25.363-10.494-24.948-7.789-24.374-7.643-25.446-6.459m83.432 6.56c-19.82 6.204-23.527 7.474-24.247 8.31l-0.851 0.986 0.096 36.85 0.096 36.849 0.988 0.554c1.187 0.667 47.132-13.33 49-14.927l0.955-0.816 0.1-36.82c0.099-36.472 0.093-36.827-0.66-37.58-1.096-1.095-0.03-1.371-25.477 6.594" fill="#fcb530"/>
<path d="m195.66 22.239c-2.662 1.105-2.666 1.162-2.454 30.854l0.19 26.489 1.296 1.336c1.634 1.685-0.291 1.016 30.584 10.634 14.421 4.493 26.579 8.403 27.018 8.691 1.693 1.109 1.668 0.49 1.668 41.862 0 42.531-0.058 41.265 1.95 42.551 0.484 0.311 12.428 4.161 26.541 8.556 14.113 4.396 26.171 8.23 26.796 8.522 2.405 1.123 2.242-1.801 2.449 43.993 0.188 41.56 0.193 41.77 0.973 42.816 0.858 1.148 1.536 1.419 10.622 4.244 3.274 1.017 11.132 3.469 17.462 5.447 21.714 6.788 22.966 6.921 24.14 2.562 0.787-2.926 0.332-224.21-0.465-225.43-1.038-1.585 1.54-0.742-84.241-27.542-86.139-26.912-83.362-26.072-84.529-25.588m-88.276 26.487c-85.766 26.843-82.848 25.887-83.65 27.386-0.896 1.675-0.777 224.1 0.121 225.48 1.405 2.143 1.5 2.125 21.428-4.116 6.953-2.177 13.745-4.292 15.094-4.7 8.284-2.504 11.72-3.812 12.449-4.74 0.75-0.952 0.759-1.466 0.759-42.209 0-42.862-0.013-42.497 1.612-44.232 0.886-0.946 0.407-0.787 33.86-11.216 16.604-5.177 21.529-6.853 22.264-7.576l0.943-0.929 0.189-40.275c0.104-22.151 0.333-40.568 0.509-40.927 0.669-1.362 3.412-2.337 29.452-10.465 14.714-4.593 27.092-8.588 27.507-8.879 2.256-1.58 2.149-0.143 2.152-28.984 3e-3 -29.989 0.106-29.039-3.142-28.912-0.45 0.018-37.146 11.402-81.547 25.298m151.25-5.294c33.234 10.398 61.529 19.244 62.878 19.659 36.581 11.251 40.732 12.691 41.175 14.28 0.518 1.857 0.368 221.97-0.151 223.01-0.326 0.649-0.843 0.98-1.652 1.059-1.708 0.167-45.681-13.615-46.705-14.639-0.776-0.777-0.781-0.958-0.968-42.437l-0.189-41.658-0.944-1.009c-1.399-1.498-1.78-1.643-15.283-5.844-31.339-9.748-39.547-12.404-40.129-12.986-0.572-0.572-0.641-4.061-0.814-40.895-0.21-44.807-0.029-41.938-2.73-43.334-0.664-0.344-13.1-4.332-27.635-8.863-28.839-8.99-28.731-8.952-29.266-10.36-0.695-1.827-0.481-53.585 0.224-54.29 0.909-0.909-1.776-1.7 62.189 18.311m-252.43 16.662-1.109 1.227 1.227-1.109c1.143-1.033 1.4-1.344 1.108-1.344-0.065 0-0.617 0.552-1.226 1.226m378.51 128.77c0 64.547 0.043 91.009 0.096 58.804 0.054-32.205 0.054-85.016 0-117.36-0.053-32.343-0.096-5.993-0.096 58.554m-199.24 104.88c-7.453 2.33-32.637 10.223-41.698 13.069-8.075 2.536-9.295 2.564-16.227 0.376-2.802-0.884-9.594-3.017-15.094-4.738-5.5-1.722-13.821-4.329-18.491-5.793-18.385-5.764-14.574-5.874-36.792 1.056-25.087 7.825-24.471 6.714-6.793 12.241 5.604 1.752 24.283 7.625 41.51 13.052 36.873 11.615 40.014 12.603 52.641 16.565 27.968 8.774 36.899 11.584 41.698 13.117 8.449 2.698 4.713 3.338 33.208-5.696 8.302-2.633 16.113-5.095 17.358-5.473 1.246-0.378 7.953-2.477 14.906-4.664s14.085-4.426 15.849-4.976 6.859-2.158 11.321-3.573c10.912-3.461 22.374-7.066 46.226-14.541 11-3.446 20.804-6.524 21.785-6.838 0.982-0.314 2.171-0.899 2.642-1.298l0.856-0.727-0.795-0.678c-0.438-0.373-5.192-2.06-10.566-3.75-33.575-10.558-26.603-10.139-49.393-2.969-43.287 13.618-37.008 12.493-48.868 8.755-33.19-10.46-46.636-14.563-47.671-14.544-0.658 0.011-4.084 0.924-7.612 2.027" fill="#70b3d3"/>
<path d="m190.45 1.752c-0.104 0.104-0.757 0.277-1.451 0.384-0.694 0.108-1.589 0.478-1.987 0.822-0.561 0.484-0.651 0.498-0.4 0.061 0.281-0.488 0.238-0.495-0.312-0.048-0.351 0.285-0.639 0.391-0.639 0.237 0-0.155-0.254-0.07-0.566 0.188-0.311 0.259-0.566 0.344-0.566 0.189s-0.212-0.105-0.471 0.11c-0.26 0.216-0.599 0.406-0.755 0.424s-0.368 0.053-0.472 0.079-0.358 0.09-0.566 0.142c-0.207 0.052-0.42 0.128-0.472 0.169-0.051 0.042-0.518 0.15-1.037 0.24-0.519 0.091-1.198 0.276-1.51 0.411-0.311 0.136-0.693 0.282-0.849 0.326-0.155 0.044-0.368 0.122-0.471 0.174-0.266 0.133-0.563 0.207-2.167 0.543-0.776 0.162-1.328 0.431-1.225 0.598 0.103 0.166-0.11 0.254-0.475 0.195-0.364-0.058-0.874 0.062-1.133 0.268-0.26 0.207-0.472 0.249-0.472 0.094 0-0.154-0.281-0.048-0.624 0.237s-0.683 0.476-0.755 0.424-0.216-0.073-0.319-0.047c-0.104 0.026-0.359 0.089-0.566 0.141-0.208 0.052-0.463 0.137-0.566 0.189-0.104 0.052-0.359 0.137-0.566 0.189-0.208 0.051-0.42 0.128-0.472 0.17s-0.392 0.148-0.755 0.236-0.957 0.232-1.321 0.319c-0.363 0.088-0.66 0.186-0.66 0.217s-0.419 0.134-0.931 0.228-1.339 0.438-1.839 0.766c-0.653 0.428-0.822 0.452-0.6 0.084 0.253-0.421 0.195-0.42-0.331 7e-3 -0.351 0.285-0.639 0.391-0.639 0.237 0-0.155-0.254-0.07-0.566 0.188-0.311 0.259-0.566 0.344-0.566 0.189s-0.254-0.07-0.566 0.189c-0.311 0.258-0.566 0.343-0.566 0.188 0-0.154-0.254-0.069-0.566 0.189-0.311 0.258-0.566 0.372-0.566 0.252s-0.721 0.043-1.604 0.364c-0.882 0.32-1.858 0.639-2.169 0.709-0.312 0.07-0.566 0.154-0.566 0.187s-0.509 0.142-1.131 0.243c-0.621 0.1-1.457 0.468-1.857 0.818-0.549 0.479-0.647 0.496-0.401 0.069 0.281-0.488 0.238-0.495-0.313-0.049-0.351 0.285-0.638 0.392-0.638 0.237 0-0.154-0.255-0.069-0.566 0.189s-0.566 0.343-0.566 0.189c0-0.155-0.255-0.07-0.566 0.188-0.311 0.259-0.566 0.344-0.566 0.189s-0.255-0.07-0.566 0.189c-0.312 0.258-0.566 0.343-0.566 0.188 0-0.154-0.213-0.105-0.472 0.111-0.259 0.215-0.599 0.406-0.755 0.423-0.155 0.018-0.325 0.046-0.377 0.063-0.052 0.018-0.6 0.113-1.217 0.213-0.618 0.1-1.339 0.362-1.604 0.582-0.264 0.219-0.481 0.291-0.481 0.159s-0.594 8e-3 -1.321 0.312c-0.726 0.303-1.32 0.455-1.32 0.336s-0.255-4e-3 -0.566 0.254c-0.312 0.259-0.567 0.343-0.567 0.189 0-0.155-0.254-0.07-0.566 0.189-0.311 0.258-0.566 0.343-0.566 0.188 0-0.154-0.254-0.069-0.566 0.189-0.311 0.258-0.566 0.373-0.566 0.255s-0.976 0.13-2.169 0.55c-1.194 0.421-2.425 0.824-2.736 0.895-0.312 0.071-0.609 0.163-0.661 0.205s-0.264 0.119-0.471 0.17c-0.208 0.052-0.463 0.137-0.566 0.189-0.338 0.169-0.928 0.282-1.721 0.33-0.427 0.026-0.681 0.202-0.564 0.392 0.117 0.189-0.085 0.296-0.449 0.237-0.365-0.059-0.875 0.062-1.134 0.268-0.26 0.206-0.472 0.248-0.472 0.094 0-0.155-0.255-0.07-0.566 0.189-0.311 0.258-0.566 0.343-0.566 0.188 0-0.154-0.255-0.07-0.566 0.189-0.311 0.258-0.566 0.343-0.566 0.189 0-0.155-0.255-0.07-0.566 0.188-0.312 0.259-0.566 0.372-0.566 0.252s-0.722 0.044-1.604 0.364-1.774 0.614-1.981 0.654c-0.208 0.04-0.59 0.205-0.849 0.367-0.26 0.162-0.472 0.197-0.472 0.079 0-0.119-0.594 0.032-1.321 0.335-0.726 0.304-1.32 0.455-1.32 0.337 0-0.119-0.255-5e-3 -0.566 0.254-0.312 0.258-0.567 0.375-0.567 0.259s-1.485 0.3-3.301 0.925-3.472 1.171-3.68 1.213c-0.207 0.042-0.589 0.209-0.849 0.371-0.259 0.163-0.471 0.198-0.471 0.079s-0.552 0.015-1.227 0.297c-0.674 0.281-1.354 0.538-1.509 0.571-0.156 0.032-0.326 0.071-0.378 0.087s-0.385 0.085-0.741 0.154c-0.644 0.123-6.383 1.939-7.466 2.362-0.311 0.121-0.651 0.238-0.755 0.259s-0.401 0.173-0.66 0.338c-0.26 0.164-0.472 0.202-0.472 0.083s-0.637 0.05-1.415 0.375c-0.778 0.326-1.458 0.583-1.509 0.571-0.052-0.011-0.137-7e-3 -0.189 8e-3 -0.052 0.016-0.513 0.105-1.025 0.199s-1.34 0.439-1.839 0.766c-0.654 0.428-0.822 0.452-0.601 0.084 0.254-0.421 0.195-0.419-0.331 7e-3 -0.351 0.285-0.638 0.392-0.638 0.237s-0.255-0.07-0.566 0.189c-0.311 0.258-0.566 0.343-0.566 0.188 0-0.154-0.255-0.069-0.566 0.189-0.312 0.258-0.566 0.343-0.566 0.189 0-0.155-0.281-0.048-0.624 0.237-0.344 0.284-0.683 0.475-0.755 0.423s-0.173-0.08-0.225-0.063-0.6 0.113-1.217 0.213c-0.618 0.1-1.339 0.361-1.604 0.581-0.264 0.22-0.481 0.273-0.481 0.118 0-0.154-0.255-0.07-0.566 0.189-0.311 0.258-0.566 0.362-0.566 0.23s-0.594 8e-3 -1.321 0.312c-0.726 0.303-1.321 0.454-1.321 0.336 0-0.119-0.254-4e-3 -0.566 0.254-0.311 0.258-0.566 0.343-0.566 0.189 0-0.155-0.254-0.07-0.566 0.188-0.311 0.259-0.566 0.344-0.566 0.189s-0.28-0.048-0.624 0.237c-0.343 0.285-0.683 0.475-0.754 0.423-0.072-0.052-0.216-0.073-0.32-0.047s-0.358 0.09-0.566 0.142c-0.207 0.052-0.462 0.136-0.566 0.188s-0.358 0.137-0.566 0.189c-0.207 0.052-0.42 0.129-0.472 0.17-0.051 0.042-0.391 0.148-0.754 0.236-0.364 0.088-0.958 0.232-1.321 0.32s-0.66 0.185-0.66 0.217c0 0.031-0.419 0.133-0.931 0.227s-1.34 0.439-1.839 0.766c-0.669 0.438-0.839 0.46-0.645 0.084 0.145-0.281-4e-3 -0.181-0.331 0.222-0.37 0.457-0.594 0.546-0.594 0.237 0-0.398-0.112-0.403-0.566-0.026-0.311 0.258-0.566 0.343-0.566 0.189 0-0.155-0.255-0.07-0.566 0.188-0.312 0.259-0.566 0.344-0.566 0.189s-0.255-0.07-0.566 0.189c-0.312 0.258-0.566 0.343-0.566 0.188 0-0.154-0.255-0.069-0.566 0.189-0.312 0.258-0.566 0.362-0.566 0.23s-0.595 8e-3 -1.321 0.312c-0.727 0.303-1.321 0.454-1.321 0.336 0-0.119-0.212-0.04-0.472 0.176-0.259 0.215-0.601 0.393-0.761 0.395-0.801 9e-3 -2.786 0.57-3.201 0.905-0.259 0.209-0.472 0.253-0.472 0.099 0-0.155-0.254-0.07-0.566 0.188-0.311 0.259-0.566 0.344-0.566 0.189 0-0.154-0.254-0.07-0.566 0.189-0.311 0.258-0.566 0.343-0.566 0.188 0-0.154-0.254-0.069-0.566 0.189-0.311 0.259-0.566 0.343-0.566 0.189 0-0.155-0.254-0.07-0.566 0.189-0.311 0.258-0.566 0.343-0.566 0.188 0-0.154-0.255-0.069-0.566 0.189s-0.566 0.362-0.566 0.23-0.594 8e-3 -1.321 0.312c-0.726 0.303-1.32 0.454-1.32 0.336 0-0.119-0.255-4e-3 -0.566 0.254-0.312 0.258-0.567 0.345-0.567 0.191 0-0.153-0.445 0.014-0.989 0.371-0.678 0.443-0.907 0.487-0.727 0.137 0.145-0.28-4e-3 -0.181-0.331 0.222-0.336 0.415-0.594 0.528-0.594 0.261 0-0.286-0.186-0.354-0.472-0.172-0.259 0.164-0.599 0.323-0.754 0.352-0.156 0.029-0.368 0.096-0.472 0.147-0.104 0.052-0.359 0.137-0.566 0.189-0.208 0.052-0.42 0.128-0.472 0.17-0.052 0.041-0.505 0.151-1.008 0.243s-1.139 0.355-1.415 0.584-0.501 0.308-0.501 0.176-0.598 0.01-1.328 0.315-1.409 0.562-1.509 0.571-0.225 0.029-0.277 0.045c-0.051 0.015-0.518 0.102-1.037 0.193-0.519 0.09-1.198 0.275-1.51 0.411-0.311 0.135-0.693 0.282-0.849 0.326-0.155 0.043-0.368 0.122-0.472 0.174-0.103 0.052-0.358 0.136-0.566 0.188-0.207 0.052-0.462 0.137-0.566 0.189-0.103 0.052-0.358 0.137-0.566 0.189-0.207 0.052-0.462 0.136-0.566 0.188-0.103 0.052-0.358 0.137-0.566 0.189-0.207 0.052-0.42 0.129-0.471 0.17-0.052 0.042-0.382 0.132-0.733 0.2-0.701 0.135-3.185 0.882-4.079 1.226-0.311 0.12-0.977 0.287-1.48 0.37-0.503 0.084-1.267 0.349-1.698 0.589-0.431 0.239-0.911 0.399-1.067 0.355s-0.283 0.1-0.283 0.32-0.17 0.295-0.377 0.166c-0.208-0.128-0.378-0.053-0.378 0.167 0 0.219-0.223 0.399-0.495 0.399-0.588 0-2.524 1.939-2.524 2.528 0 0.226-0.279 0.517-0.62 0.648s-0.513 0.345-0.382 0.476-0.142 0.848-0.606 1.595l-0.844 1.357 3e-3 122.26c1e-3 67.245 0.139 122.77 0.305 123.38s0.483 1.338 0.704 1.603c0.22 0.266 0.283 0.484 0.139 0.484s5e-3 0.267 0.331 0.593 0.593 0.826 0.593 1.111c0 0.284 0.509 0.818 1.132 1.186s1.132 0.878 1.132 1.134c0 0.255 0.849 0.891 1.887 1.412s1.887 0.849 1.887 0.729c0-0.121 0.254-8e-3 0.566 0.25 0.311 0.258 0.566 0.373 0.566 0.254 0-0.118 0.594 0.033 1.321 0.336 0.726 0.304 1.32 0.444 1.32 0.312s0.255-0.028 0.566 0.23c0.312 0.258 0.566 0.343 0.566 0.189 0-0.155 0.255-0.07 0.566 0.188 0.312 0.259 0.566 0.344 0.566 0.189 0-0.154 0.255-0.07 0.567 0.189 0.311 0.258 0.566 0.343 0.566 0.188 0-0.154 0.254-0.069 0.566 0.189 0.311 0.259 0.566 0.343 0.566 0.189 0-0.155 0.254-0.07 0.566 0.189 0.311 0.258 0.566 0.343 0.566 0.188 0-0.154 0.212-0.105 0.471 0.111 0.26 0.215 0.599 0.405 0.755 0.423s0.326 0.045 0.377 0.061c0.052 0.016 0.434 0.107 0.85 0.203 1.276 0.293 1.886 0.463 1.886 0.523 0 0.032 0.255 0.117 0.566 0.189 0.312 0.072 2.052 0.643 3.868 1.268s3.302 1.042 3.302 0.926 0.255 0 0.566 0.258c0.312 0.259 0.566 0.344 0.566 0.189 0-0.154 0.255-0.07 0.566 0.189 0.312 0.258 0.566 0.343 0.566 0.188 0-0.154 0.217-0.101 0.481 0.119 0.265 0.219 0.902 0.469 1.416 0.554 0.513 0.085 1.188 0.252 1.5 0.372 1.149 0.44 7.964 2.613 8.408 2.681 0.253 0.038 0.672 0.202 0.931 0.364 0.26 0.162 0.472 0.179 0.472 0.037 0-0.141 0.287-0.024 0.638 0.261 0.526 0.427 0.585 0.428 0.331 7e-3 -0.203-0.337 0.03-0.29 0.683 0.138 0.544 0.357 0.989 0.523 0.989 0.37s0.255-0.067 0.566 0.192c0.312 0.258 0.566 0.343 0.566 0.189 0-0.155 0.255-0.07 0.567 0.188 0.311 0.259 0.566 0.358 0.566 0.222 0-0.137 0.35-0.061 0.779 0.169 0.428 0.229 1.065 0.478 1.415 0.552 0.35 0.075 1.612 0.479 2.806 0.897 1.193 0.419 2.169 0.664 2.169 0.546s0.255-3e-3 0.566 0.256c0.312 0.258 0.566 0.372 0.566 0.254 0-0.119 0.595 0.033 1.321 0.336 0.727 0.304 1.321 0.444 1.321 0.312s0.255-0.029 0.566 0.23c0.311 0.258 0.566 0.343 0.566 0.188 0-0.154 0.281-0.048 0.624 0.237s0.683 0.476 0.755 0.424 0.173-0.082 0.225-0.066 0.349 0.094 0.66 0.174c0.311 0.079 1.585 0.497 2.83 0.929 1.246 0.431 2.604 0.85 3.019 0.93 0.415 0.081 0.797 0.18 0.849 0.222 0.052 0.041 0.222 0.111 0.378 0.155 0.155 0.044 0.537 0.19 0.849 0.326 0.311 0.135 0.905 0.295 1.32 0.355 0.416 0.061 0.967 0.242 1.227 0.404 0.259 0.162 0.472 0.179 0.472 0.037 0-0.141 0.254-0.045 0.566 0.213 0.311 0.258 0.566 0.343 0.566 0.189 0-0.155 0.254-0.07 0.566 0.188 0.311 0.259 0.566 0.344 0.566 0.189 0-0.154 0.287-0.048 0.638 0.237 0.551 0.446 0.594 0.44 0.313-0.048-0.194-0.337 0.032-0.261 0.558 0.188 0.487 0.416 0.775 0.566 0.641 0.336-0.134-0.231 0.389-0.108 1.162 0.273 0.772 0.381 1.744 0.756 2.159 0.834 0.416 0.078 1.01 0.251 1.321 0.383 0.311 0.133 0.906 0.291 1.321 0.351s0.967 0.242 1.226 0.404c0.26 0.162 0.472 0.178 0.472 0.037s0.255-0.046 0.566 0.213c0.311 0.258 0.566 0.343 0.566 0.188 0-0.154 0.255-0.069 0.566 0.189s0.566 0.343 0.566 0.189c0-0.155 0.255-0.07 0.566 0.188 0.312 0.259 0.566 0.344 0.566 0.189s0.255-0.07 0.566 0.189c0.312 0.258 0.566 0.343 0.566 0.188 0-0.154 0.255-0.069 0.566 0.189 0.312 0.258 0.566 0.343 0.566 0.189 0-0.155 0.213-0.11 0.472 0.099 0.495 0.398 2.813 0.99 3.049 0.778 0.075-0.067 0.418 0.111 0.761 0.395 0.343 0.285 0.624 0.421 0.624 0.303 0-0.119 0.594 0.032 1.321 0.336 0.726 0.303 1.321 0.444 1.321 0.312s0.254-0.029 0.566 0.23c0.311 0.258 0.566 0.343 0.566 0.188 0-0.154 0.254-0.069 0.566 0.189 0.311 0.258 0.566 0.343 0.566 0.189 0-0.155 0.254-0.07 0.566 0.188 0.311 0.259 0.566 0.344 0.566 0.189s0.255-0.07 0.566 0.189c0.311 0.258 0.566 0.343 0.566 0.188 0-0.154 0.287-0.048 0.638 0.237 0.551 0.447 0.594 0.44 0.313-0.048-0.258-0.447-0.174-0.436 0.399 0.052 0.677 0.577 2.996 1.289 3.303 1.014 0.075-0.067 0.45 0.132 0.833 0.443 0.5 0.407 0.61 0.423 0.389 0.056-0.222-0.368-0.053-0.345 0.601 0.084 0.499 0.327 1.242 0.647 1.65 0.71 0.408 0.064 0.954 0.248 1.214 0.41 0.259 0.162 0.471 0.179 0.471 0.037 0-0.141 0.255-0.045 0.566 0.213 0.312 0.258 0.566 0.343 0.566 0.189 0-0.155 0.255-0.07 0.566 0.188 0.312 0.259 0.566 0.344 0.566 0.189s0.255-0.07 0.566 0.189c0.312 0.258 0.566 0.343 0.566 0.188 0-0.154 0.255-0.069 0.566 0.189 0.312 0.258 0.567 0.343 0.567 0.189 0-0.155 0.287-0.048 0.638 0.236 0.526 0.427 0.584 0.428 0.331 8e-3 -0.222-0.368-0.053-0.345 0.601 0.084 0.499 0.327 1.242 0.647 1.65 0.71 0.408 0.064 0.954 0.248 1.213 0.41 0.26 0.162 0.472 0.208 0.472 0.103 0-0.106 0.595 0.056 1.321 0.36 0.726 0.303 1.321 0.444 1.321 0.312s0.254-0.029 0.566 0.229c0.311 0.259 0.566 0.344 0.566 0.189 0-0.154 0.254-0.07 0.566 0.189 0.311 0.258 0.566 0.343 0.566 0.189 0-0.155 0.255-0.07 0.566 0.188 0.311 0.259 0.566 0.343 0.566 0.189 0-0.155 0.255-0.07 0.566 0.189 0.311 0.258 0.566 0.343 0.566 0.188 0-0.154 0.255-0.069 0.566 0.189s0.566 0.373 0.566 0.254 0.594 0.033 1.321 0.336c0.726 0.304 1.321 0.444 1.321 0.312s0.254-0.028 0.566 0.23c0.311 0.258 0.566 0.343 0.566 0.189 0-0.155 0.216-0.102 0.481 0.118 0.264 0.219 0.901 0.457 1.415 0.527 0.514 0.071 1.146 0.262 1.406 0.424 0.259 0.163 0.471 0.18 0.471 0.039 0-0.142 0.255-0.046 0.566 0.212 0.312 0.259 0.566 0.344 0.566 0.189 0-0.154 0.255-0.07 0.566 0.189 0.312 0.258 0.566 0.343 0.566 0.188 0-0.154 0.255-0.069 0.566 0.189 0.312 0.259 0.566 0.343 0.566 0.189 0-0.155 0.255-0.07 0.566 0.189 0.312 0.258 0.567 0.343 0.567 0.188 0-0.154 0.254-0.07 0.566 0.189 0.454 0.377 0.566 0.372 0.566-0.026 0-0.302 0.216-0.209 0.554 0.237 0.304 0.403 0.559 0.614 0.566 0.469 6e-3 -0.146 0.605-0.016 1.331 0.287 0.725 0.303 1.404 0.549 1.509 0.547 0.105-3e-3 0.233 8e-3 0.285 0.024s0.349 0.087 0.66 0.158c0.312 0.072 1.543 0.474 2.736 0.895 1.194 0.42 2.17 0.668 2.17 0.55s0.255-3e-3 0.566 0.255 0.566 0.343 0.566 0.189c0-0.155 0.255-0.07 0.566 0.188 0.311 0.259 0.566 0.344 0.566 0.189 0-0.154 0.255-0.07 0.566 0.189 0.311 0.258 0.566 0.373 0.566 0.254s0.594 0.033 1.321 0.336c0.726 0.304 1.321 0.444 1.321 0.312s0.212-0.081 0.471 0.112c0.26 0.194 0.727 0.337 1.038 0.317s0.651 0.072 0.755 0.204c0.186 0.237 4.885 1.867 5.769 2.001 0.251 0.039 0.669 0.203 0.929 0.365 0.259 0.162 0.472 0.179 0.472 0.037 0-0.141 0.254-0.046 0.566 0.213 0.311 0.258 0.566 0.343 0.566 0.188 0-0.154 0.287-0.048 0.638 0.237 0.526 0.427 0.584 0.428 0.331 7e-3 -0.203-0.337 0.029-0.29 0.682 0.138 0.545 0.357 0.99 0.523 0.99 0.37s0.212-0.102 0.472 0.114c0.259 0.215 0.599 0.405 0.755 0.423 0.155 0.018 0.325 0.045 0.377 0.061s0.349 0.088 0.66 0.159c0.312 0.072 1.798 0.559 3.302 1.081 1.505 0.523 2.736 0.855 2.736 0.738s0.255-1e-3 0.566 0.257c0.311 0.259 0.566 0.344 0.566 0.189s0.255-0.07 0.566 0.189c0.312 0.258 0.566 0.343 0.566 0.188 0-0.154 0.213-0.113 0.472 0.091 0.574 0.453 1.08 0.505 5.282 0.541 2.12 0.018 3.504-0.14 3.868-0.442 0.312-0.259 0.567-0.376 0.567-0.261 0 0.116 1.74-0.386 3.868-1.114 2.127-0.728 4.038-1.358 4.245-1.4 0.208-0.043 0.59-0.21 0.849-0.372 0.26-0.162 0.472-0.198 0.472-0.079s0.594-0.032 1.321-0.336c0.726-0.303 1.32-0.454 1.32-0.336 0 0.119 0.255 4e-3 0.566-0.254 0.312-0.258 0.566-0.343 0.566-0.189 0 0.155 0.255 0.07 0.567-0.188 0.311-0.259 0.566-0.375 0.566-0.259s1.485-0.301 3.301-0.926 3.557-1.195 3.868-1.268c0.312-0.072 0.609-0.165 0.661-0.207s0.264-0.119 0.471-0.17c0.208-0.052 0.42-0.13 0.472-0.173s0.6-0.16 1.217-0.26c0.618-0.1 1.339-0.362 1.604-0.581 0.265-0.22 0.481-0.273 0.481-0.119 0 0.155 0.255 0.07 0.566-0.188 0.311-0.259 0.566-0.343 0.566-0.189 0 0.155 0.255 0.07 0.566-0.189 0.311-0.258 0.566-0.343 0.566-0.188 0 0.154 0.255 0.069 0.566-0.189 0.312-0.258 0.566-0.365 0.566-0.238s1.104-0.184 2.453-0.692c1.349-0.507 2.453-0.825 2.453-0.705s0.255 7e-3 0.566-0.252c0.311-0.258 0.566-0.361 0.566-0.23 0 0.132 0.594-8e-3 1.321-0.311 0.726-0.304 1.32-0.455 1.32-0.337 0 0.119 0.255 5e-3 0.567-0.254 0.311-0.258 0.566-0.343 0.566-0.188 0 0.154 0.254 0.069 0.566-0.189 0.311-0.259 0.566-0.343 0.566-0.189 0 0.155 0.254 0.07 0.566-0.188 0.311-0.259 0.566-0.344 0.566-0.189 0 0.154 0.281 0.048 0.624-0.237s0.683-0.475 0.754-0.424c0.072 0.052 0.174 0.082 0.225 0.067 0.052-0.016 0.519-0.105 1.038-0.199s1.576-0.482 2.349-0.863c0.772-0.381 1.292-0.504 1.154-0.273s0.036 0.186 0.387-0.099c0.351-0.284 0.639-0.391 0.639-0.236 0 0.154 0.212 0.105 0.471-0.111 0.51-0.423 0.64-0.455 1.815-0.455 0.427 0 0.681-0.155 0.564-0.345-0.117-0.189 0.085-0.296 0.45-0.237 0.364 0.059 0.874-0.061 1.133-0.268 0.26-0.206 0.472-0.248 0.472-0.094 0 0.155 0.255 0.07 0.566-0.188 0.312-0.259 0.566-0.344 0.566-0.189 0 0.154 0.255 0.07 0.566-0.189 0.312-0.258 0.566-0.343 0.566-0.188 0 0.154 0.255 0.069 0.566-0.189 0.312-0.259 0.566-0.372 0.566-0.252 0 0.368 3.158-0.872 3.47-1.363 0.224-0.353 0.294-0.345 0.298 0.033 4e-3 0.301 0.19 0.379 0.478 0.199 0.259-0.163 0.892-0.354 1.405-0.424 0.514-0.071 1.151-0.308 1.415-0.528 0.265-0.219 0.482-0.273 0.482-0.118s0.254 0.07 0.566-0.189c0.311-0.258 0.566-0.343 0.566-0.188 0 0.154 0.254 0.069 0.566-0.189 0.311-0.258 0.566-0.343 0.566-0.189 0 0.155 0.254 0.07 0.566-0.188 0.311-0.259 0.566-0.344 0.566-0.189s0.255 0.07 0.566-0.189c0.311-0.258 0.566-0.343 0.566-0.188 0 0.154 0.255 0.069 0.566-0.189s0.566-0.343 0.566-0.189c0 0.155 0.255 0.07 0.566-0.188 0.311-0.259 0.566-0.362 0.566-0.23s0.597-0.01 1.328-0.315c0.73-0.305 1.409-0.562 1.509-0.571s0.224-0.029 0.276-0.045c0.052-0.015 0.513-0.104 1.025-0.198s1.34-0.439 1.839-0.766c0.654-0.429 0.822-0.452 0.601-0.084-0.254 0.42-0.195 0.419 0.331-7e-3 0.351-0.285 0.638-0.392 0.638-0.237 0 0.154 0.255 0.069 0.566-0.189 0.312-0.258 0.566-0.343 0.566-0.189 0 0.155 0.255 0.07 0.566-0.188 0.312-0.259 0.566-0.344 0.566-0.189s0.255 0.07 0.566-0.189c0.312-0.258 0.566-0.343 0.566-0.188 0 0.154 0.281 0.048 0.624-0.237 0.344-0.285 0.683-0.476 0.755-0.424s0.173 0.082 0.225 0.067c0.052-0.016 0.519-0.103 1.038-0.194 0.519-0.09 1.198-0.275 1.509-0.411 0.312-0.135 0.694-0.282 0.849-0.325 0.156-0.044 0.326-0.115 0.378-0.158s0.599-0.16 1.217-0.26c0.617-0.101 1.339-0.362 1.604-0.582 0.264-0.219 0.481-0.272 0.481-0.118 0 0.155 0.254 0.07 0.566-0.189 0.311-0.258 0.566-0.343 0.566-0.188 0 0.154 0.254 0.069 0.566-0.189 0.311-0.258 0.566-0.343 0.566-0.189 0 0.155 0.255 0.07 0.566-0.188 0.311-0.259 0.566-0.344 0.566-0.189s0.255 0.07 0.566-0.189c0.311-0.258 0.566-0.343 0.566-0.188 0 0.154 0.255 0.069 0.566-0.189s0.566-0.343 0.566-0.189c0 0.155 0.255 0.07 0.566-0.188 0.311-0.259 0.566-0.362 0.566-0.23s0.598-0.01 1.328-0.315 1.409-0.562 1.509-0.571 0.224-0.029 0.276-0.044c0.052-0.016 0.513-0.105 1.025-0.199s1.34-0.439 1.839-0.766c0.654-0.429 0.822-0.452 0.601-0.084-0.253 0.421-0.195 0.419 0.331-7e-3 0.351-0.285 0.638-0.386 0.638-0.225s0.369-0.03 0.82-0.425c0.512-0.45 0.697-0.507 0.493-0.153-0.281 0.488-0.238 0.494 0.313 0.048 0.351-0.285 0.638-0.391 0.638-0.237 0 0.155 0.255 0.07 0.566-0.189 0.312-0.258 0.567-0.343 0.567-0.188 0 0.154 0.28 0.048 0.624-0.237 0.343-0.285 0.682-0.476 0.754-0.424s0.173 0.082 0.225 0.067c0.052-0.016 0.519-0.103 1.038-0.193 0.519-0.091 1.198-0.276 1.509-0.411 0.312-0.136 0.694-0.282 0.85-0.326 0.155-0.044 0.367-0.122 0.471-0.174 0.21-0.105 0.223-0.109 2.076-0.537 0.726-0.168 1.533-0.476 1.792-0.685 0.26-0.209 0.472-0.254 0.472-0.099 0 0.154 0.255 0.07 0.566-0.189 0.311-0.258 0.566-0.343 0.566-0.188 0 0.154 0.255 0.069 0.566-0.189 0.311-0.259 0.566-0.343 0.566-0.189 0 0.155 0.255 0.07 0.566-0.189 0.311-0.258 0.566-0.343 0.566-0.188 0 0.154 0.255 0.07 0.566-0.189 0.311-0.258 0.566-0.343 0.566-0.189 0 0.155 0.255 0.07 0.566-0.188 0.312-0.259 0.566-0.362 0.566-0.23s0.598-0.01 1.328-0.315 1.409-0.562 1.509-0.571 0.225-0.029 0.276-0.044c0.052-0.016 0.481-0.1 0.954-0.188s1.452-0.408 2.177-0.71c0.724-0.303 1.373-0.516 1.441-0.473s0.437-0.177 0.82-0.488c0.619-0.503 0.66-0.503 0.371 0-0.194 0.337 0.032 0.26 0.558-0.189 0.527-0.449 0.753-0.525 0.559-0.188-0.281 0.488-0.238 0.494 0.312 0.048 0.351-0.285 0.639-0.392 0.639-0.237 0 0.154 0.254 0.07 0.566-0.189 0.311-0.258 0.566-0.362 0.566-0.23s0.594-8e-3 1.32-0.312c0.727-0.303 1.321-0.454 1.321-0.336 0 0.119 0.255 4e-3 0.566-0.254 0.312-0.258 0.566-0.376 0.566-0.261s1.996-0.47 4.434-1.302c2.439-0.831 4.689-1.57 5-1.643 0.312-0.073 0.566-0.159 0.566-0.192s0.505-0.142 1.123-0.242c0.617-0.1 1.339-0.362 1.604-0.581 0.264-0.22 0.481-0.273 0.481-0.119 0 0.155 0.255 0.07 0.566-0.188 0.311-0.259 0.566-0.369 0.566-0.246 0 0.124 1.486-0.301 3.302-0.943 1.816-0.641 3.556-1.218 3.868-1.281 0.311-0.063 0.608-0.148 0.66-0.19s0.264-0.118 0.472-0.17c0.207-0.052 0.42-0.129 0.471-0.171 0.101-0.081 0.749-0.258 1.982-0.541 0.415-0.096 0.797-0.208 0.849-0.25s0.264-0.119 0.471-0.17c0.208-0.052 0.42-0.129 0.472-0.171s0.381-0.131 0.732-0.199c1.238-0.239 3.519-1.054 3.985-1.424 0.259-0.206 0.472-0.248 0.472-0.093 0 0.154 0.254 0.069 0.566-0.189 0.311-0.258 0.566-0.362 0.566-0.23s0.594-8e-3 1.321-0.312c0.726-0.303 1.32-0.454 1.32-0.336 0 0.119 0.281-0.017 0.624-0.302 0.344-0.285 0.691-0.458 0.771-0.385 0.298 0.271 2.362-0.798 2.163-1.12-0.113-0.184 0.102-0.334 0.478-0.334 0.728 0 2.757-1.918 2.757-2.607 0-0.227 0.144-0.412 0.32-0.412 0.485 0 1.688-2.894 1.398-3.363-0.139-0.226-0.088-0.41 0.113-0.41 0.202 0 0.319-0.429 0.262-0.953-0.058-0.524 0.042-1.043 0.222-1.154 0.444-0.274 0.428-240.91-0.016-240.91-0.188 0-0.254-0.337-0.146-0.749s0.064-1.049-0.097-1.415c-0.161-0.367-0.314-0.751-0.339-0.855s-0.246-0.548-0.491-0.988-0.338-0.907-0.207-1.038 0.041-0.238-0.202-0.238c-0.242 0-0.44-0.255-0.44-0.566s-0.265-0.566-0.588-0.566c-0.324 0-0.5-0.144-0.391-0.32 0.373-0.603-2.954-3.151-4.776-3.658-0.155-0.043-0.367-0.121-0.471-0.173s-0.359-0.137-0.566-0.189c-0.208-0.052-0.42-0.128-0.472-0.17-0.088-0.071-0.775-0.254-1.887-0.501-0.259-0.058-0.684-0.237-0.943-0.399-0.26-0.163-0.472-0.179-0.472-0.038s-0.255 0.046-0.566-0.213c-0.311-0.258-0.566-0.343-0.566-0.188 0 0.154-0.255 0.069-0.566-0.189s-0.566-0.343-0.566-0.189c0 0.155-0.255 0.07-0.566-0.188-0.311-0.259-0.566-0.344-0.566-0.189s-0.255 0.07-0.566-0.189c-0.311-0.258-0.566-0.343-0.566-0.188 0 0.154-0.255 0.069-0.566-0.189-0.312-0.258-0.566-0.373-0.566-0.254 0 0.118-0.594-0.033-1.319-0.336-0.726-0.303-1.405-0.549-1.51-0.546-0.104 2e-3 -0.233-9e-3 -0.284-0.025-0.052-0.016-0.392-0.101-0.755-0.189s-0.958-0.231-1.321-0.319-0.703-0.194-0.755-0.236-0.264-0.119-0.471-0.17c-0.208-0.052-0.463-0.137-0.566-0.189-0.104-0.052-0.359-0.137-0.566-0.189-0.208-0.052-0.463-0.137-0.566-0.189-0.104-0.051-0.359-0.136-0.567-0.188-0.207-0.052-0.462-0.137-0.566-0.189-0.103-0.052-0.358-0.137-0.566-0.189-0.207-0.051-0.462-0.136-0.566-0.188-0.103-0.052-0.316-0.118-0.471-0.148-0.156-0.029-0.496-0.187-0.755-0.352s-0.472-0.213-0.472-0.108c0 0.106-0.594-0.056-1.32-0.36-0.727-0.303-1.321-0.444-1.321-0.312s-0.255 0.029-0.566-0.23c-0.312-0.258-0.566-0.372-0.566-0.254 0 0.119-0.594-0.032-1.319-0.335-0.726-0.303-1.405-0.549-1.51-0.547-0.104 2e-3 -0.233-9e-3 -0.285-0.025-0.051-0.016-0.349-0.088-0.66-0.16s-2.052-0.643-3.868-1.268-3.302-1.041-3.302-0.925-0.254-1e-3 -0.566-0.259c-0.311-0.259-0.566-0.344-0.566-0.189s-0.287 0.048-0.638-0.237c-0.526-0.426-0.585-0.428-0.331-7e-3 0.203 0.337-0.03 0.29-0.682-0.138-0.545-0.356-0.99-0.523-0.99-0.37s-0.255 0.067-0.566-0.191c-0.312-0.259-0.566-0.344-0.566-0.189s-0.255 0.07-0.566-0.189c-0.312-0.258-0.566-0.343-0.566-0.188 0 0.154-0.213 0.111-0.472-0.097-0.4-0.321-4.19-1.553-5.378-1.749-0.207-0.034-0.547-0.163-0.754-0.286-0.208-0.123-0.676-0.175-1.04-0.117-0.364 0.059-0.566-0.048-0.449-0.237 0.117-0.19-0.137-0.366-0.564-0.392-0.793-0.048-1.457-0.175-1.626-0.312-0.052-0.041-0.35-0.134-0.661-0.206s-1.797-0.558-3.302-1.081c-1.504-0.523-2.736-0.855-2.736-0.738s-0.254 1e-3 -0.566-0.257c-0.311-0.258-0.566-0.343-0.566-0.189 0 0.155-0.254 0.07-0.566-0.188-0.311-0.259-0.566-0.344-0.566-0.189 0 0.154-0.254 0.07-0.566-0.189-0.311-0.258-0.566-0.343-0.566-0.188 0 0.154-0.216 0.101-0.481-0.119-0.265-0.219-0.986-0.481-1.604-0.581-0.617-0.1-1.122-0.209-1.122-0.242s-0.255-0.118-0.566-0.19c-0.312-0.072-1.798-0.558-3.302-1.081-1.505-0.522-2.736-0.854-2.736-0.738 0 0.117-0.255 1e-3 -0.566-0.257s-0.566-0.343-0.566-0.189c0 0.155-0.255 0.07-0.566-0.188-0.312-0.259-0.566-0.373-0.566-0.255 0 0.119-0.595-0.032-1.321-0.336-0.726-0.303-1.321-0.444-1.321-0.312s-0.255 0.029-0.566-0.229c-0.311-0.259-0.566-0.373-0.566-0.255 0 0.119-0.594-0.032-1.321-0.336-0.726-0.303-1.32-0.444-1.32-0.312s-0.255 0.029-0.566-0.23c-0.312-0.258-0.566-0.343-0.566-0.188 0 0.154-0.255 0.069-0.566-0.189-0.312-0.258-0.567-0.343-0.567-0.189 0 0.155-0.254 0.07-0.566-0.188-0.311-0.259-0.566-0.344-0.566-0.189s-0.254 0.07-0.566-0.189c-0.311-0.258-0.566-0.343-0.566-0.188 0 0.154-0.254 0.069-0.566-0.189-0.311-0.258-0.566-0.343-0.566-0.189 0 0.155-0.287 0.048-0.638-0.236-0.526-0.427-0.585-0.428-0.331-8e-3 0.208 0.346-5e-3 0.307-0.658-0.121-0.531-0.348-1.444-0.673-2.028-0.721-0.584-0.049-1.444-0.297-1.911-0.552s-0.849-0.352-0.849-0.216c0 0.137-0.255 0.037-0.566-0.221s-0.566-0.343-0.566-0.189c0 0.155-0.255 0.07-0.566-0.188-0.311-0.259-0.566-0.344-0.566-0.189 0 0.154-0.255 0.07-0.566-0.189-0.311-0.258-0.566-0.343-0.566-0.189 0 0.155-0.255 0.07-0.566-0.188-0.311-0.259-0.566-0.343-0.566-0.189 0 0.155-0.212 0.112-0.472-0.094-0.259-0.206-0.77-0.327-1.134-0.268s-0.566-0.048-0.449-0.237-0.137-0.365-0.564-0.391c-0.793-0.049-1.383-0.162-1.721-0.331-0.104-0.052-0.358-0.136-0.566-0.188-0.207-0.052-0.42-0.129-0.472-0.171-0.051-0.042-0.433-0.154-0.849-0.249-0.415-0.096-0.924-0.215-1.132-0.265-0.207-0.05-0.589-0.224-0.849-0.386-0.259-0.162-0.471-0.179-0.471-0.037 0 0.141-0.255 0.045-0.566-0.213-0.455-0.377-0.566-0.372-0.566 0.026 0 0.302-0.217 0.209-0.555-0.237-0.304-0.403-0.559-0.584-0.566-0.403-6e-3 0.181-0.299 0.096-0.65-0.189-0.551-0.446-0.594-0.44-0.313 0.048 0.204 0.354 0.019 0.297-0.493-0.153-0.451-0.395-0.82-0.586-0.82-0.425s-0.212 0.122-0.471-0.087c-0.26-0.209-1.066-0.517-1.793-0.685-1.852-0.428-1.865-0.432-2.075-0.537-0.104-0.051-0.316-0.13-0.472-0.174s-0.538-0.19-0.849-0.325c-0.311-0.136-0.991-0.321-1.51-0.412-0.518-0.09-0.985-0.198-1.037-0.24-0.052-0.041-0.222-0.099-0.378-0.128-0.155-0.029-0.495-0.188-0.754-0.352-0.26-0.165-0.472-0.184-0.472-0.043 0 0.142-0.255 0.046-0.566-0.212-0.311-0.259-0.566-0.344-0.566-0.189s-0.255 0.07-0.566-0.189c-0.311-0.258-0.566-0.343-0.566-0.188 0 0.154-0.255 0.069-0.566-0.189-0.312-0.258-0.566-0.373-0.566-0.254 0 0.118-0.595-0.033-1.321-0.336-0.726-0.304-1.321-0.444-1.321-0.312s-0.254 0.028-0.566-0.23c-0.311-0.259-0.566-0.373-0.566-0.254 0 0.118-0.593-0.033-1.319-0.336-0.725-0.303-1.404-0.549-1.509-0.547-0.105 3e-3 -0.233-8e-3 -0.285-0.024s-0.349-0.088-0.66-0.16c-0.312-0.073-2.052-0.643-3.868-1.268s-3.302-1.042-3.302-0.926-0.255 0-0.566-0.259c-0.312-0.258-0.566-0.343-0.566-0.188 0 0.154-0.255 0.069-0.566-0.189-0.312-0.258-0.566-0.373-0.566-0.254 0 0.118-0.595-0.033-1.321-0.336-0.727-0.304-1.321-0.444-1.321-0.312s-0.281 7e-3 -0.624-0.278-0.683-0.476-0.755-0.424-0.173 0.081-0.225 0.066c-0.052-0.016-0.349-0.087-0.66-0.159-0.311-0.071-1.542-0.473-2.736-0.894-1.193-0.42-2.17-0.668-2.17-0.55s-0.212 0.038-0.471-0.177c-0.26-0.215-0.599-0.406-0.755-0.424-0.156-0.017-0.326-0.045-0.377-0.061-0.052-0.015-0.392-0.1-0.755-0.188s-0.958-0.232-1.321-0.32-0.66-0.186-0.66-0.217c0-0.032-0.255-0.118-0.566-0.19-0.312-0.073-2.307-0.728-4.434-1.456-2.128-0.728-3.868-1.229-3.868-1.113 0 0.115-0.213 0.051-0.472-0.143s-0.726-0.336-1.038-0.316c-0.311 0.019-0.658-0.093-0.771-0.251-0.113-0.157-0.622-0.362-1.132-0.456s-0.927-0.196-0.927-0.227-0.255-0.116-0.566-0.188c-0.311-0.073-2.052-0.643-3.868-1.268-1.816-0.626-3.302-1.042-3.302-0.926s-0.212 0.043-0.471-0.161c-0.26-0.205-0.854-0.339-1.321-0.298s-0.849-0.039-0.849-0.177c0-0.29-5.871-0.419-6.155-0.135m89.74 46.075c85.781 26.8 83.203 25.957 84.241 27.542 0.797 1.215 1.252 222.5 0.465 225.43-1.174 4.359-2.426 4.226-24.14-2.562-6.33-1.978-14.188-4.43-17.462-5.447-9.086-2.825-9.764-3.096-10.622-4.244-0.78-1.046-0.785-1.256-0.973-42.816-0.207-45.794-0.044-42.87-2.449-43.993-0.625-0.292-12.683-4.126-26.796-8.522-14.113-4.395-26.057-8.245-26.541-8.556-2.008-1.286-1.95-0.02-1.95-42.551 0-41.372 0.025-40.753-1.668-41.862-0.439-0.288-12.597-4.198-27.018-8.691-30.875-9.618-28.95-8.949-30.584-10.634l-1.296-1.336-0.19-26.489c-0.212-29.692-0.208-29.749 2.454-30.854 1.167-0.484-1.61-1.324 84.529 25.588m-89.829-24.196c1.706 0.654 1.716 0.82 1.713 28.709-3e-3 28.841 0.104 27.404-2.152 28.984-0.415 0.291-12.793 4.286-27.507 8.879-26.04 8.128-28.783 9.103-29.452 10.465-0.176 0.359-0.405 18.776-0.509 40.927l-0.189 40.275-0.943 0.929c-0.735 0.723-5.66 2.399-22.264 7.576-33.453 10.429-32.974 10.27-33.86 11.216-1.625 1.735-1.612 1.37-1.612 44.232 0 40.743-9e-3 41.257-0.759 42.209-0.729 0.928-4.165 2.236-12.449 4.74-1.349 0.408-8.141 2.523-15.094 4.7-19.928 6.241-20.023 6.259-21.428 4.116-0.608-0.929-0.647-7.786-0.647-112.74 0-122.44-0.184-113.13 2.25-114.29 1.687-0.801 162.48-51.093 163.47-51.132 0.45-0.017 1.093 0.074 1.429 0.203m4.923 59.572c1.245 0.518 14.321 4.688 29.057 9.267 22.069 6.858 26.942 8.492 27.641 9.27l0.849 0.944 0.021 39.696c0.023 42.441-0.016 41.571 1.917 43.003 0.546 0.405 12.943 4.461 27.547 9.013 17.651 5.501 26.806 8.527 27.308 9.026 0.744 0.739 0.756 1.32 0.855 42.305 0.113 46.658 0.356 42.896-2.812 43.674-0.999 0.246-13.194 3.994-27.1 8.328-29.546 9.21-28.192 8.829-30.373 8.531-0.937-0.128-13.335-3.871-27.551-8.317-14.217-4.446-26.656-8.285-27.642-8.53-2.332-0.58-0.723-1.017-30.66 8.331-13.906 4.343-26.175 8.099-27.265 8.348-2.665 0.609-1.799 0.841-31.242-8.354-13.914-4.346-26.183-8.091-27.264-8.323-3.383-0.725-3.097 3.294-3.097-43.599 0-41.066 9e-3 -41.575 0.758-42.528 1.021-1.297-2.116-0.255 42.261-14.036 12.381-3.845 13.248-4.174 14.434-5.48l1.037-1.142v-39.561c0-42.41-0.041-41.506 1.952-42.536 1.012-0.524 16.817-5.54 43.897-13.932 5.604-1.737 10.783-3.416 11.51-3.732 1.676-0.73 1.332-0.759 3.962 0.334m18.179 214.5c10.549 3.303 22.83 7.156 27.293 8.562 10.695 3.371 10.26 3.377 22.075-0.332 4.981-1.564 17.038-5.354 26.793-8.423 22.79-7.17 15.818-7.589 49.393 2.969 5.374 1.69 10.128 3.377 10.566 3.75l0.795 0.678-0.856 0.727c-0.471 0.399-1.66 0.984-2.642 1.298-0.981 0.314-10.785 3.392-21.785 6.838-23.852 7.475-35.314 11.08-46.226 14.541-4.462 1.415-9.557 3.023-11.321 3.573s-8.896 2.789-15.849 4.976-13.66 4.286-14.906 4.664c-1.245 0.378-9.056 2.84-17.358 5.473-28.495 9.034-24.759 8.394-33.208 5.696-4.799-1.533-13.73-4.343-41.698-13.117-12.627-3.962-15.768-4.95-52.641-16.565-17.227-5.427-35.906-11.3-41.51-13.052-17.678-5.527-18.294-4.416 6.793-12.241 22.218-6.93 18.407-6.82 36.792-1.056 4.67 1.464 12.991 4.071 18.491 5.793 5.5 1.721 12.292 3.854 15.094 4.738 6.932 2.188 8.152 2.16 16.227-0.376 9.061-2.846 34.245-10.739 41.698-13.069 8.313-2.6 6.012-2.925 27.99 3.955" fill="#b3ebfb"/>
<path d="m191.04 1.357c0.316 0.316 5.118 0.345 5.43 0.033 0.142-0.142-1.073-0.258-2.698-0.258-1.626 0-2.855 0.101-2.732 0.225m6.03 0.369c0.12 0.12 0.53 0.277 0.912 0.349 0.383 0.072 0.695 0.158 0.695 0.191s0.51 0.124 1.132 0.202c1.108 0.139 1.104 0.131-0.188-0.379-1.342-0.53-2.946-0.758-2.551-0.363m-12.072 1.165c-0.259 0.105-0.472 0.367-0.472 0.583 0 0.257 0.174 0.247 0.507-0.028 0.278-0.231 0.601-0.326 0.717-0.21 0.115 0.116 0.322 0.029 0.459-0.192 0.255-0.413-0.371-0.492-1.211-0.153m-3.092 1.032c-0.762 0.275-1.124 0.579-0.875 0.732 0.233 0.145 0.533 0.088 0.665-0.127 0.133-0.214 0.387-0.299 0.566-0.188 0.179 0.11 0.434 0.025 0.566-0.189 0.133-0.214 0.387-0.299 0.566-0.189 0.179 0.111 0.432 0.029 0.562-0.182 0.307-0.496-0.422-0.445-2.05 0.143m23.945 0.611c0.13 0.211 0.383 0.294 0.562 0.183s0.434-0.026 0.566 0.189c0.133 0.214 0.43 0.272 0.662 0.129 0.268-0.166 0.157-0.363-0.31-0.545-1.063-0.417-1.752-0.396-1.48 0.044m-27.719 0.521c-0.715 0.259-1.121 0.581-0.902 0.716s0.521 0.123 0.671-0.027 0.386-0.287 0.525-0.306c0.138-0.018 0.676-0.22 1.195-0.448 1.291-0.567 0.119-0.515-1.489 0.065m31.457 0.511c0.156 0.156 0.439 0.304 0.629 0.33s0.388 0.083 0.44 0.126 0.604 0.142 1.227 0.22c1.108 0.139 1.104 0.131-0.189-0.38-1.469-0.58-2.542-0.731-2.107-0.296m-38.577 1.736c-1.932 0.663-3.391 1.327-3.242 1.476 0.15 0.15 0.5 0.083 0.778-0.148 0.279-0.231 0.507-0.294 0.507-0.139 0 0.154 0.212 0.104 0.471-0.111 0.26-0.215 0.599-0.406 0.755-0.423 0.156-0.018 0.368-0.054 0.472-0.08 0.103-0.026 0.358-0.089 0.566-0.141 0.207-0.052 0.462-0.137 0.566-0.189s0.358-0.137 0.566-0.189c0.207-0.051 0.462-0.136 0.566-0.188s0.316-0.131 0.472-0.175c0.155-0.045 0.707-0.267 1.226-0.495 1.928-0.847-0.305-0.363-3.703 0.802m48.046 1.383c0.131 0.211 0.384 0.293 0.563 0.183 0.179-0.111 0.433-0.026 0.566 0.189 0.132 0.214 0.43 0.272 0.661 0.129 0.269-0.166 0.157-0.363-0.309-0.545-1.064-0.417-1.753-0.396-1.481 0.044m-54.154 0.573c-1.293 0.511-1.297 0.519-0.189 0.38 0.623-0.078 1.175-0.177 1.226-0.22 0.052-0.043 0.25-0.1 0.441-0.126 0.19-0.025 0.473-0.174 0.629-0.33 0.434-0.435-0.639-0.284-2.107 0.296m56.796 0.182c0.13 0.211 0.383 0.293 0.562 0.183 0.179-0.111 0.434-0.026 0.566 0.188 0.133 0.215 0.387 0.3 0.566 0.189s0.434-0.026 0.566 0.189c0.133 0.214 0.432 0.271 0.666 0.127 0.249-0.154-0.114-0.457-0.875-0.732-1.629-0.589-2.358-0.64-2.051-0.144m-62.268 1.516c-1.66 0.598-2.509 1.023-1.887 0.945 0.623-0.077 1.175-0.176 1.227-0.219 0.051-0.043 0.264-0.121 0.471-0.173 0.208-0.051 0.463-0.136 0.566-0.188 0.104-0.052 0.359-0.137 0.566-0.189 0.208-0.052 0.463-0.137 0.566-0.189 0.104-0.051 0.359-0.136 0.566-0.188 0.208-0.052 0.463-0.137 0.566-0.189 0.104-0.052 0.345-0.116 0.535-0.141 0.19-0.026 0.473-0.175 0.629-0.331 0.523-0.523-0.766-0.231-3.805 0.862m71.649 1.385c0.147 0.147 0.727 0.31 1.29 0.364 0.882 0.085 0.919 0.052 0.269-0.239-0.919-0.411-1.925-0.491-1.559-0.125m-77.662 0.451c-0.466 0.182-0.578 0.379-0.309 0.545 0.231 0.143 0.529 0.085 0.662-0.129 0.132-0.215 0.387-0.3 0.566-0.189 0.178 0.11 0.431 0.028 0.562-0.183 0.272-0.44-0.417-0.461-1.481-0.044m80.356 0.422c0.131 0.211 0.384 0.293 0.563 0.182 0.178-0.11 0.433-0.025 0.566 0.189 0.132 0.214 0.387 0.299 0.566 0.189 0.179-0.111 0.433-0.026 0.566 0.188 0.132 0.215 0.432 0.272 0.665 0.127 0.249-0.153-0.114-0.457-0.875-0.732-1.628-0.588-2.357-0.639-2.051-0.143m-86.914 1.635c-1.932 0.663-3.391 1.327-3.242 1.477 0.15 0.149 0.5 0.082 0.778-0.149 0.279-0.231 0.507-0.294 0.507-0.139 0 0.154 0.212 0.105 0.471-0.111 0.26-0.215 0.599-0.406 0.755-0.423 0.156-0.018 0.368-0.054 0.472-0.079 0.104-0.026 0.358-0.09 0.566-0.142 0.207-0.052 0.462-0.137 0.566-0.189s0.358-0.136 0.566-0.188c0.207-0.052 0.462-0.137 0.566-0.189s0.358-0.137 0.566-0.189 0.462-0.136 0.566-0.188 0.344-0.116 0.535-0.142c0.19-0.026 0.473-0.174 0.629-0.33 0.524-0.525-0.769-0.23-4.301 0.981m97.428 1.643c0.146 0.146 0.726 0.31 1.289 0.364 0.883 0.085 0.92 0.052 0.269-0.239-0.918-0.411-1.924-0.491-1.558-0.125m-104.1 0.502c-0.651 0.291-0.614 0.324 0.268 0.24 0.563-0.054 1.144-0.218 1.29-0.364 0.366-0.367-0.64-0.286-1.558 0.124m106.8 0.371c0.13 0.211 0.383 0.293 0.562 0.182 0.179-0.11 0.434-0.025 0.566 0.189 0.133 0.214 0.43 0.273 0.662 0.13 0.268-0.167 0.157-0.363-0.309-0.546-1.064-0.417-1.753-0.396-1.481 0.045m-111.7 1.158c-1.66 0.607-2.509 1.001-1.887 0.874 1.944-0.395 2.262-0.469 2.359-0.547 0.052-0.042 0.264-0.119 0.471-0.171 0.208-0.052 0.463-0.137 0.566-0.188 0.104-0.052 0.359-0.137 0.566-0.189 0.208-0.052 0.463-0.137 0.567-0.189 0.103-0.052 0.344-0.115 0.534-0.141s0.473-0.175 0.629-0.33c0.529-0.53-0.78-0.227-3.805 0.881m116.57 0.251c0.156 0.155 0.439 0.304 0.629 0.33 0.191 0.026 0.431 0.089 0.535 0.141s0.358 0.137 0.566 0.189c0.207 0.052 0.462 0.137 0.566 0.189s0.316 0.118 0.472 0.147c0.155 0.029 0.495 0.188 0.754 0.352 0.26 0.165 0.472 0.184 0.472 0.043 0-0.142 0.24-0.059 0.532 0.184 0.293 0.244 0.624 0.295 0.736 0.115 0.111-0.181-0.947-0.698-2.352-1.151-2.716-0.875-3.365-0.995-2.91-0.539m-123.72 1.942c-0.466 0.183-0.578 0.38-0.309 0.546 0.231 0.143 0.529 0.084 0.662-0.13 0.132-0.214 0.387-0.299 0.566-0.189 0.178 0.111 0.431 0.029 0.562-0.182 0.272-0.441-0.417-0.461-1.481-0.045m130.92 0.422c0.131 0.211 0.384 0.293 0.563 0.183 0.179-0.111 0.433-0.026 0.566 0.188 0.132 0.215 0.43 0.273 0.661 0.13 0.269-0.166 0.157-0.363-0.309-0.545-1.064-0.417-1.753-0.396-1.481 0.044m-135.78 1.07c-1.622 0.559-2.826 1.138-2.677 1.287 0.15 0.15 0.457 0.118 0.684-0.07s0.539-0.356 0.695-0.374 0.368-0.053 0.472-0.079 0.358-0.09 0.566-0.142c0.207-0.052 0.462-0.137 0.566-0.188 0.104-0.052 0.358-0.137 0.566-0.189 0.207-0.052 0.462-0.137 0.566-0.189s0.316-0.13 0.472-0.175c0.155-0.044 0.707-0.267 1.226-0.495 1.798-0.789-0.202-0.398-3.136 0.614m140.03 0.069c0.469 0.189 0.91 0.305 0.98 0.259 0.069-0.046 0.407 0.15 0.75 0.435 0.344 0.285 0.624 0.344 0.624 0.131s-0.534-0.573-1.188-0.801c-1.419-0.494-2.387-0.514-1.166-0.024m2.936 1.144c0.137 0.222 0.343 0.308 0.459 0.192 0.116-0.115 0.439-0.021 0.717 0.21 0.319 0.264 0.507 0.278 0.507 0.037 0-0.211-0.269-0.486-0.597-0.612-0.907-0.348-1.363-0.275-1.086 0.173m2.252 0.736c0.131 0.211 0.384 0.293 0.563 0.183 0.178-0.111 0.433-0.026 0.566 0.188 0.132 0.215 0.43 0.273 0.661 0.13 0.269-0.166 0.157-0.363-0.309-0.546-1.064-0.416-1.753-0.395-1.481 0.045m-153.59 0.762c-0.651 0.291-0.614 0.324 0.268 0.239 0.563-0.054 1.144-0.218 1.29-0.364 0.366-0.366-0.64-0.286-1.558 0.125m157.36 0.37c0.13 0.211 0.383 0.293 0.562 0.183 0.179-0.111 0.434-0.026 0.566 0.188 0.133 0.215 0.43 0.273 0.662 0.13 0.269-0.166 0.157-0.363-0.309-0.546-1.064-0.416-1.753-0.395-1.481 0.045m-159.98 0.333c-0.466 0.182-0.578 0.379-0.309 0.545 0.231 0.143 0.529 0.085 0.662-0.129 0.132-0.215 0.387-0.299 0.566-0.189 0.178 0.111 0.431 0.028 0.562-0.182 0.272-0.441-0.417-0.462-1.481-0.045m163.18 0.5c0.519 0.228 1.07 0.451 1.226 0.495 0.156 0.045 0.368 0.124 0.472 0.175 0.104 0.052 0.358 0.137 0.566 0.189 0.207 0.052 0.462 0.137 0.566 0.189s0.358 0.137 0.566 0.188c0.207 0.052 0.462 0.137 0.566 0.189s0.358 0.137 0.566 0.189 0.462 0.137 0.566 0.189c0.104 0.051 0.316 0.118 0.472 0.147 0.155 0.029 0.483 0.18 0.728 0.336s0.532 0.144 0.638-0.027-1.462-0.853-3.484-1.516c-3.636-1.191-5.275-1.545-3.448-0.743m-172.08 2.382c-1.292 0.51-1.296 0.518-0.188 0.379 0.622-0.078 1.174-0.177 1.226-0.22s0.25-0.099 0.44-0.125 0.473-0.175 0.629-0.33c0.435-0.435-0.638-0.284-2.107 0.296m180.9 0.441c0.146 0.146 0.726 0.31 1.289 0.364 0.883 0.085 0.92 0.052 0.269-0.239-0.918-0.411-1.924-0.491-1.558-0.125m-184.67 0.691c-1.293 0.51-1.297 0.518-0.189 0.379 0.623-0.078 1.174-0.177 1.226-0.22s0.25-0.099 0.441-0.125c0.19-0.026 0.473-0.175 0.629-0.33 0.434-0.435-0.639-0.284-2.107 0.296m187.33 0.081c0.155 0.156 0.438 0.304 0.629 0.33 0.19 0.026 0.43 0.09 0.534 0.142s0.359 0.136 0.566 0.188c0.208 0.052 0.463 0.137 0.566 0.189 0.104 0.052 0.359 0.137 0.566 0.189 0.208 0.052 0.463 0.137 0.566 0.188 0.104 0.052 0.359 0.137 0.566 0.189 0.208 0.052 0.463 0.137 0.566 0.189 0.104 0.052 0.359 0.137 0.566 0.188 0.208 0.052 0.463 0.137 0.567 0.189 0.103 0.052 0.358 0.137 0.566 0.189 0.207 0.052 0.419 0.129 0.471 0.172s0.604 0.142 1.227 0.22c0.622 0.079-0.815-0.53-3.195-1.351-4.335-1.497-5.29-1.739-4.761-1.211m-196.76 2.938c-1.293 0.51-1.297 0.518-0.189 0.379 0.623-0.078 1.175-0.177 1.226-0.22 0.052-0.043 0.25-0.099 0.441-0.125 0.19-0.026 0.473-0.175 0.629-0.331 0.434-0.434-0.639-0.284-2.107 0.297m207.31 0.441c0.146 0.146 0.726 0.31 1.289 0.364 0.882 0.085 0.919 0.052 0.269-0.239-0.919-0.411-1.925-0.491-1.558-0.125m-210.49 0.45c-0.466 0.183-0.578 0.38-0.309 0.546 0.231 0.143 0.529 0.085 0.661-0.13 0.133-0.214 0.388-0.299 0.567-0.188 0.178 0.11 0.431 0.028 0.562-0.183 0.272-0.44-0.417-0.461-1.481-0.045m213.19 0.422c0.131 0.211 0.384 0.293 0.563 0.183 0.179-0.111 0.433-0.026 0.566 0.189 0.132 0.214 0.387 0.299 0.566 0.188 0.179-0.11 0.433-0.025 0.566 0.189 0.132 0.214 0.432 0.272 0.665 0.127 0.249-0.154-0.114-0.457-0.875-0.732-1.628-0.588-2.357-0.639-2.051-0.144m-219.18 1.447c-1.621 0.559-2.825 1.139-2.676 1.288 0.15 0.149 0.457 0.118 0.684-0.07 0.227-0.189 0.539-0.357 0.695-0.374 0.156-0.018 0.368-0.054 0.472-0.08 0.103-0.026 0.358-0.089 0.566-0.141 0.207-0.052 0.462-0.137 0.566-0.189s0.358-0.137 0.566-0.189c0.207-0.052 0.462-0.136 0.566-0.188s0.358-0.137 0.566-0.189c0.207-0.052 0.462-0.137 0.566-0.189s0.344-0.115 0.534-0.141c0.191-0.026 0.474-0.175 0.629-0.33 0.506-0.506-0.727-0.245-3.734 0.792m227.48 1.195c0.131 0.211 0.384 0.293 0.563 0.182 0.178-0.11 0.433-0.025 0.566 0.189 0.132 0.214 0.43 0.273 0.661 0.13 0.269-0.166 0.157-0.363-0.309-0.546-1.064-0.416-1.753-0.396-1.481 0.045m-234.15 0.95c-1.293 0.511-1.297 0.519-0.189 0.38 0.623-0.078 1.174-0.177 1.226-0.22s0.25-0.1 0.441-0.126c0.19-0.026 0.473-0.174 0.629-0.33 0.434-0.435-0.639-0.284-2.107 0.296m237.89 0.082c0.155 0.155 0.438 0.304 0.629 0.33 0.19 0.026 0.43 0.089 0.534 0.141s0.359 0.137 0.566 0.189c0.208 0.052 0.463 0.137 0.566 0.189 0.104 0.051 0.316 0.118 0.472 0.147s0.495 0.188 0.755 0.352c0.259 0.165 0.471 0.212 0.471 0.106 0-0.107 0.701 0.053 1.557 0.355 0.857 0.302 1.748 0.536 1.981 0.52 0.475-0.032-6.888-2.613-7.454-2.613-0.198 0-0.233 0.128-0.077 0.284m-243.08 1.476c-0.259 0.105-0.472 0.367-0.472 0.582 0 0.258 0.174 0.248 0.507-0.028 0.278-0.231 0.601-0.325 0.717-0.21 0.115 0.116 0.322 0.03 0.459-0.192 0.255-0.412-0.371-0.491-1.211-0.152m-3.654 1.221c-0.467 0.182-0.578 0.379-0.309 0.545 0.231 0.143 0.529 0.085 0.661-0.129 0.133-0.215 0.387-0.3 0.566-0.189s0.432 0.028 0.562-0.182c0.273-0.441-0.417-0.462-1.48-0.045m-2.642 0.755c-0.466 0.182-0.578 0.379-0.309 0.545 0.231 0.143 0.529 0.085 0.662-0.13 0.132-0.214 0.387-0.299 0.566-0.188 0.178 0.11 0.431 0.028 0.562-0.183 0.272-0.44-0.417-0.461-1.481-0.044m262.62 0.799c0.13 0.211 0.383 0.293 0.562 0.182 0.179-0.11 0.433-0.025 0.566 0.189 0.132 0.214 0.43 0.273 0.661 0.13 0.269-0.166 0.158-0.363-0.309-0.546-1.064-0.416-1.753-0.396-1.48 0.045m-269.25 1.328c-1.971 0.701-3.075 1.211-2.452 1.133 0.622-0.078 1.174-0.176 1.226-0.219s0.264-0.121 0.472-0.173c0.207-0.052 0.462-0.137 0.566-0.188 0.104-0.052 0.358-0.137 0.566-0.189 0.207-0.052 0.462-0.137 0.566-0.189s0.358-0.137 0.566-0.188c0.207-0.052 0.462-0.137 0.566-0.189s0.358-0.137 0.566-0.189c0.207-0.052 0.462-0.137 0.566-0.188 0.104-0.052 0.344-0.116 0.535-0.142 0.19-0.026 0.473-0.175 0.628-0.33 0.541-0.541-0.805-0.217-4.371 1.051m277.55 1.313c0.131 0.211 0.384 0.294 0.563 0.183 0.178-0.111 0.433-0.026 0.566 0.189 0.132 0.214 0.43 0.272 0.661 0.129 0.269-0.166 0.157-0.363-0.309-0.545-1.064-0.417-1.753-0.396-1.481 0.044m-283.59 0.573c-1.293 0.511-1.297 0.519-0.189 0.38 0.623-0.078 1.175-0.177 1.226-0.22 0.052-0.043 0.25-0.1 0.441-0.125 0.19-0.026 0.473-0.175 0.629-0.331 0.434-0.435-0.639-0.284-2.107 0.296m287.31 0.442c0.146 0.146 0.726 0.31 1.289 0.364 0.882 0.084 0.919 0.051 0.269-0.239-0.919-0.411-1.925-0.492-1.558-0.125m-293.91 1.634c-2.283 0.805-3.642 1.4-3.019 1.322s1.175-0.176 1.226-0.219c0.052-0.043 0.265-0.121 0.472-0.173 0.208-0.052 0.462-0.137 0.566-0.188 0.104-0.052 0.359-0.137 0.566-0.189 0.208-0.052 0.462-0.137 0.566-0.189s0.359-0.137 0.566-0.189c0.208-0.051 0.463-0.136 0.566-0.188 0.104-0.052 0.359-0.137 0.566-0.189 0.208-0.052 0.463-0.137 0.566-0.189 0.104-0.051 0.316-0.13 0.472-0.175 0.156-0.044 0.708-0.267 1.227-0.495 2.145-0.942-0.475-0.301-4.34 1.061m303.35 1.385c0.146 0.146 0.726 0.31 1.289 0.364 0.882 0.084 0.919 0.051 0.269-0.24-0.919-0.41-1.925-0.491-1.558-0.124m-309.36 0.45c-0.466 0.183-0.578 0.38-0.309 0.546 0.231 0.143 0.529 0.084 0.662-0.13 0.132-0.214 0.387-0.299 0.566-0.189 0.178 0.111 0.431 0.029 0.562-0.182 0.272-0.441-0.417-0.462-1.481-0.045m312.05 0.422c0.131 0.211 0.384 0.293 0.563 0.183 0.179-0.111 0.433-0.026 0.566 0.188 0.132 0.215 0.43 0.273 0.661 0.13 0.269-0.166 0.158-0.363-0.309-0.546-1.064-0.416-1.753-0.395-1.481 0.045m-316.4 0.898c-1.339 0.465-2.254 0.957-2.034 1.093 0.22 0.135 0.523 0.124 0.673-0.026s0.428-0.294 0.618-0.32c0.191-0.026 0.431-0.09 0.535-0.142 0.104-0.051 0.358-0.136 0.566-0.188 0.207-0.052 0.462-0.137 0.566-0.189s0.358-0.137 0.566-0.189 0.462-0.136 0.566-0.188 0.344-0.116 0.535-0.142c0.19-0.026 0.473-0.174 0.629-0.33 0.484-0.484-0.688-0.258-3.22 0.621m321.27 0.511c0.156 0.156 0.439 0.304 0.629 0.33s0.431 0.09 0.534 0.142c0.104 0.052 0.359 0.137 0.566 0.188 0.208 0.052 0.463 0.137 0.566 0.189 0.104 0.052 0.316 0.118 0.472 0.147 0.156 0.03 0.495 0.188 0.755 0.353 0.259 0.165 0.472 0.184 0.472 0.042 0-0.141 0.254-0.046 0.566 0.213 0.311 0.258 0.566 0.343 0.566 0.189 0-0.155 0.239-0.083 0.532 0.16s0.623 0.296 0.733 0.117c0.111-0.178-1.2-0.781-2.913-1.339-3.247-1.057-3.953-1.206-3.478-0.731m-325.82 1.051c-1.037 0.409-1.118 0.502-0.377 0.429 0.519-0.05 1.283-0.293 1.698-0.539 1.005-0.595 0.318-0.538-1.321 0.11m-3.182 0.892c-0.467 0.182-0.578 0.379-0.309 0.545 0.231 0.143 0.529 0.085 0.661-0.129 0.133-0.215 0.387-0.3 0.566-0.189 0.179 0.11 0.432 0.028 0.562-0.183 0.273-0.44-0.417-0.461-1.48-0.044m337.28 0.681c0.146 0.147 0.726 0.31 1.289 0.364 0.882 0.085 0.919 0.052 0.269-0.239-0.919-0.411-1.925-0.491-1.558-0.125m-343.91 1.465c-1.972 0.711-3.076 1.19-2.453 1.063 1.942-0.395 2.261-0.469 2.359-0.548 0.051-0.041 0.264-0.118 0.471-0.17 0.208-0.052 0.463-0.137 0.566-0.189 0.104-0.052 0.359-0.136 0.566-0.188 0.208-0.052 0.463-0.137 0.566-0.189 0.104-0.052 0.359-0.137 0.566-0.189 0.208-0.052 0.463-0.136 0.566-0.188 0.104-0.052 0.345-0.116 0.535-0.142s0.473-0.174 0.629-0.33c0.546-0.546-0.818-0.212-4.371 1.07m347.75-0.196c0.137 0.221 0.344 0.308 0.46 0.192 0.115-0.116 0.438-0.021 0.716 0.21 0.279 0.231 0.507 0.294 0.507 0.139s0.255-0.07 0.566 0.189c0.332 0.276 0.566 0.31 0.566 0.083 0-0.213-0.535-0.573-1.188-0.801-1.495-0.521-1.943-0.524-1.627-0.012m4.529 1.51c0.136 0.221 0.343 0.307 0.459 0.191 0.116-0.115 0.438-0.021 0.717 0.21 0.278 0.231 0.506 0.309 0.506 0.172 0-0.136 0.34-0.066 0.755 0.156s0.755 0.255 0.755 0.073-0.657-0.527-1.459-0.768c-1.801-0.539-2.049-0.544-1.733-0.034m-358.88 0.742c-0.651 0.291-0.614 0.324 0.269 0.24 0.563-0.054 1.143-0.218 1.289-0.364 0.367-0.367-0.639-0.286-1.558 0.124m362.61 0.27c0.156 0.156 0.439 0.304 0.629 0.33s0.431 0.09 0.535 0.142 0.316 0.13 0.471 0.173c1.163 0.324 2.566 1.094 2.977 1.634 0.269 0.355 0.495 0.492 0.502 0.304 0.018-0.518 1.521 0.956 1.521 1.492 0 0.257 0.279 0.574 0.62 0.705 0.537 0.206 0.552 0.149 0.112-0.432-1.434-1.891-2.245-2.558-4.316-3.548-2.137-1.021-3.676-1.425-3.051-0.8m-365.63 0.718c-2.65 1.391-6.579 6.169-5.072 6.169 0.22 0 0.295-0.17 0.167-0.377-0.129-0.208-0.044-0.378 0.188-0.378s0.324-0.159 0.203-0.354c-0.12-0.195 0.082-0.529 0.45-0.743 0.367-0.214 0.507-0.394 0.311-0.401-0.545-0.017 2.133-2.653 2.695-2.653 0.271 0 0.492-0.18 0.492-0.399 0-0.22 0.17-0.295 0.378-0.167 0.207 0.129 0.377 0.044 0.377-0.188s0.17-0.317 0.377-0.189c0.208 0.128 0.378 0.066 0.378-0.139 0-0.204 0.297-0.449 0.66-0.544 0.459-0.12 0.488-0.182 0.094-0.202-0.311-0.015-1.075 0.239-1.698 0.565m373.39 4.909c0.214 0.106 0.294 0.348 0.176 0.537-0.117 0.19-0.033 0.346 0.187 0.346 0.219 0 0.379 0.127 0.355 0.283-0.025 0.155-4e-3 0.41 0.047 0.566 0.05 0.155 0.127 0.41 0.171 0.566 0.044 0.155 0.192 0.537 0.328 0.849 0.136 0.311 0.411 1.754 0.611 3.207l0.364 2.642-0.143-2.642c-0.155-2.847-1.224-6.292-2.004-6.449-0.264-0.054-0.306-0.011-0.092 0.095m-379.99 125.3c0 116.23 0.048 123.75 0.801 123.29 0.187-0.115 0.168-0.513-0.045-0.91-0.249-0.465-0.377-41.863-0.377-121.92 0-66.672-0.085-121.31-0.19-121.41-0.104-0.105-0.189 54.327-0.189 120.96m188.68-105.32c-0.727 0.316-5.906 1.995-11.51 3.732-27.08 8.392-42.885 13.408-43.897 13.932-1.993 1.03-1.952 0.126-1.952 42.536v39.561l-1.037 1.142c-1.186 1.306-2.053 1.635-14.434 5.48-44.377 13.781-41.24 12.739-42.261 14.036-0.749 0.953-0.758 1.462-0.758 42.528 0 46.893-0.286 42.874 3.097 43.599 1.081 0.232 13.35 3.977 27.264 8.323 29.443 9.195 28.577 8.963 31.242 8.354 1.09-0.249 13.359-4.005 27.265-8.348 29.937-9.348 28.328-8.911 30.66-8.331 0.986 0.245 13.425 4.084 27.642 8.53 14.216 4.446 26.614 8.189 27.551 8.317 2.181 0.298 0.827 0.679 30.373-8.531 13.906-4.334 26.101-8.082 27.1-8.328 3.168-0.778 2.925 2.984 2.812-43.674-0.099-40.985-0.111-41.566-0.855-42.305-0.502-0.499-9.657-3.525-27.308-9.026-14.604-4.552-27.001-8.608-27.547-9.013-1.933-1.432-1.894-0.562-1.917-43.003l-0.021-39.696-0.849-0.944c-0.699-0.778-5.572-2.412-27.641-9.27-14.736-4.579-27.812-8.749-29.057-9.267-2.63-1.093-2.286-1.064-3.962-0.334m23.585 10.677c25.04 7.797 24.62 7.629 23.025 9.224-1.266 1.266-41.76 13.906-44.535 13.902-2.795-5e-3 -43.273-12.64-44.534-13.902-1.582-1.581-1.555-1.592 26.61-10.308 8.82-2.73 16.207-5.033 16.415-5.118 1.105-0.453 5.124 0.63 23.019 6.202m-49.673 20.76c18.625 5.822 22.961 7.302 23.774 8.114l0.993 0.993 0.1 36.465c0.111 40.481 0.246 38.235-2.304 38.235-2.705 0-47.135-14.256-48.268-15.488l-1.037-1.127v-36.598-36.598l0.79-0.79c1.057-1.057-0.308-1.415 25.952 6.794m83.15-6.287c0.386 0.675 0.485 8.269 0.485 37.139v36.291l-0.906 0.964c-1.181 1.257-0.52 1.029-25.801 8.907-23.157 7.215-23.306 7.252-24.215 5.955-0.733-1.047-0.91-72.381-0.183-73.976 0.667-1.465 1.213-1.665 24.501-8.991 23.348-7.345 25.254-7.804 26.119-6.289m-91.591 87.501c11.416 3.556 21.233 6.708 21.816 7.004 1.388 0.704 1.244 1.986-0.306 2.728-2.8 1.341-41.92 13.239-43.529 13.239-1.519 0-23.422-6.565-39.213-11.754-9.186-3.018-9.317-2.926 14.817-10.453 9.963-3.108 19.217-5.995 20.566-6.417 3.831-1.199 3.91-1.182 25.849 5.653m115.92-0.086c25.165 7.862 25.374 7.956 21.724 9.79-2.716 1.365-41.711 13.267-43.468 13.267-1.637 0-39.685-11.601-43.319-13.208-2.961-1.31-2.012-2.359 3.862-4.272 4.208-1.37 31.692-9.97 35.849-11.217 3.674-1.103 4-1.03 25.352 5.64m-166.88 20.432c24.012 7.492 24.64 7.735 25.374 9.83 0.578 1.649 0.694 70.4 0.123 72.393-0.79 2.754 0.306 2.977-26.293-5.329-25.68-8.019-24.822-7.645-25.22-10.995-0.668-5.627-0.017-71.483 0.715-72.292 1.079-1.191 0.612-1.31 25.301 6.393m83.792-6.387c0.561 0.55 0.714 72.646 0.156 73.993-0.68 1.645-1.064 1.788-24.512 9.105-26.51 8.272-24.272 7.667-25.458 6.89l-0.941-0.616v-36.763-36.763l0.849-0.981c0.716-0.828 4.503-2.127 24.245-8.317 22.848-7.163 24.581-7.605 25.661-6.548m32.58 6.453c24.926 7.781 24.832 7.743 25.363 10.494 0.421 2.18 0.427 69.086 7e-3 71.261-0.631 3.265 0.548 3.484-26.173-4.869-24.792-7.751-24.602-7.677-25.176-9.807-0.81-3.011-0.307-72.61 0.533-73.538 1.072-1.184 0.498-1.33 25.446 6.459m83.463-6.493c0.753 0.753 0.759 1.108 0.66 37.58l-0.1 36.82-0.955 0.816c-1.868 1.597-47.813 15.594-49 14.927l-0.988-0.554-0.096-36.849-0.096-36.85 0.851-0.986c0.72-0.836 4.427-2.106 24.247-8.31 25.447-7.965 24.381-7.689 25.477-6.594m78.919 97.989c-0.031 0.869-0.22 2.009-0.42 2.534-0.212 0.558-0.222 1.042-0.024 1.164 0.421 0.26 0.887-2.664 0.665-4.167-0.131-0.882-0.176-0.785-0.221 0.469m-1.32 5.975c-0.384 0.93-0.851 1.691-1.038 1.691s-0.34 0.185-0.34 0.41c0 0.6-2.341 2.984-2.707 2.757-0.172-0.106-0.312-8e-3 -0.312 0.217 0 0.381-1.337 1.06-2.642 1.342-0.311 0.067-0.608 0.156-0.66 0.198s-0.25 0.098-0.44 0.124c-0.19 0.025-0.488 0.198-0.661 0.383-0.465 0.497 1.587-0.062 3.461-0.943 2.678-1.258 6.637-6.104 6.152-7.53-0.064-0.187-0.43 0.42-0.813 1.351m-379.67-0.573c0.492 1.685 1.324 3.031 2.763 4.47 1.814 1.814 6.339 4.009 5.514 2.675-0.137-0.221-0.339-0.312-0.449-0.202s-0.56 0-1-0.245c-0.44-0.244-0.884-0.457-0.988-0.471-0.637-0.091-1.887-1.046-1.887-1.442 0-0.259-0.509-0.772-1.132-1.14s-1.132-0.914-1.132-1.213c0-0.3-0.18-0.545-0.4-0.545-0.219 0-0.294-0.17-0.166-0.377 0.128-0.208 0.043-0.378-0.189-0.378s-0.342-0.129-0.244-0.287-0.08-0.625-0.394-1.038c-0.551-0.723-0.562-0.716-0.296 0.193m14.697 9.639c2.692 0.925 5.055 1.682 5.251 1.682 0.431 0-0.064-0.546-0.555-0.613-0.19-0.026-0.43-0.09-0.534-0.142s-0.359-0.137-0.566-0.188c-0.208-0.052-0.462-0.137-0.566-0.189s-0.359-0.137-0.566-0.189c-0.208-0.052-0.463-0.137-0.566-0.188-0.104-0.052-0.359-0.137-0.566-0.189-0.208-0.052-0.463-0.137-0.566-0.189-0.104-0.052-0.359-0.137-0.566-0.189-0.208-0.051-0.463-0.136-0.566-0.188-0.104-0.052-0.359-0.137-0.567-0.189-0.207-0.052-0.462-0.137-0.566-0.189-0.103-0.051-0.358-0.136-0.566-0.188-0.207-0.052-0.419-0.13-0.471-0.173s-0.604-0.142-1.227-0.22c-0.622-0.078 1.071 0.615 3.763 1.541m352.1-0.737c-0.781 0.571-0.47 0.656 0.712 0.193 0.401-0.157 0.569-0.385 0.373-0.506s-0.684 0.02-1.085 0.313m-4.225 1.378c-0.101 0.164-0.331 0.208-0.51 0.098-0.178-0.111-0.433-0.026-0.566 0.188-0.132 0.215-0.387 0.299-0.566 0.189-0.179-0.111-0.432-0.029-0.562 0.182-0.337 0.545 0.463 0.432 2.638-0.373 1.428-0.528 1.627-0.684 0.819-0.64-0.588 0.031-1.151 0.192-1.253 0.356m-341.83 1.035c-0.13 0.211-0.099 0.386 0.069 0.388 0.168 3e-3 0.73 0.113 1.248 0.245 0.551 0.139 0.813 0.098 0.629-0.1-0.173-0.186-0.427-0.341-0.566-0.344-0.138-3e-3 -0.452-0.133-0.697-0.289s-0.552-0.111-0.683 0.1m338.11 6e-3c-0.133 0.214-0.387 0.299-0.566 0.189-0.179-0.111-0.432-0.029-0.562 0.182-0.273 0.441 0.416 0.461 1.48 0.045 0.467-0.183 0.578-0.38 0.309-0.546-0.231-0.143-0.529-0.084-0.661 0.13m-329.77 2.579c-0.228 0.369 2.746 1.366 3.08 1.032 0.118-0.118 0.102-0.236-0.037-0.262-0.475-0.089-1.006-0.236-1.195-0.33-0.103-0.052-0.316-0.118-0.471-0.147-0.156-0.03-0.484-0.181-0.729-0.337s-0.537-0.136-0.648 0.044m320.29 0.43c-0.109 0.109-0.312 0.214-0.45 0.232-0.139 0.018-0.676 0.22-1.195 0.448-1.558 0.684 0.046 0.456 2.075-0.295 1.413-0.522 1.621-0.683 0.828-0.641-0.582 0.031-1.148 0.146-1.258 0.256m-316.17 1.129c0.919 0.41 1.925 0.491 1.559 0.124-0.147-0.146-0.727-0.31-1.29-0.364-0.882-0.084-0.919-0.051-0.269 0.24m10.193 3.026c-0.13 0.211-0.1 0.385 0.068 0.388s0.73 0.113 1.249 0.245c0.55 0.139 0.812 0.098 0.629-0.1-0.173-0.186-0.428-0.341-0.566-0.344-0.139-4e-3 -0.452-0.134-0.697-0.29-0.246-0.155-0.553-0.11-0.683 0.101m291.64 0.474c-0.102 0.164-0.331 0.208-0.51 0.098-0.179-0.111-0.432-0.029-0.562 0.182-0.315 0.51 0.454 0.441 2.072-0.184 1.26-0.487 1.272-0.508 0.253-0.453-0.588 0.032-1.151 0.193-1.253 0.357m-287.86 0.658c-0.131 0.211-0.1 0.386 0.068 0.388 0.168 3e-3 0.73 0.113 1.248 0.245 0.551 0.139 0.813 0.098 0.629-0.1-0.173-0.186-0.427-0.341-0.566-0.344-0.138-3e-3 -0.452-0.134-0.697-0.289-0.245-0.156-0.552-0.111-0.682 0.1m284.09 0.474c-0.101 0.164-0.331 0.208-0.509 0.098-0.179-0.111-0.432-0.029-0.563 0.182-0.314 0.51 0.454 0.441 2.072-0.184 1.261-0.487 1.272-0.508 0.253-0.452-0.587 0.031-1.151 0.192-1.253 0.356m-274.85 2.726c1.469 0.58 2.542 0.731 2.107 0.296-0.156-0.155-0.439-0.304-0.629-0.33s-0.388-0.082-0.44-0.125-0.604-0.142-1.227-0.22c-1.107-0.139-1.103-0.131 0.189 0.379m266.6-0.175c-0.133 0.214-0.387 0.299-0.566 0.188-0.179-0.11-0.432-0.028-0.562 0.183-0.273 0.44 0.416 0.461 1.48 0.045 0.467-0.183 0.578-0.38 0.309-0.546-0.231-0.143-0.529-0.085-0.661 0.13m-262.26 1.496c1.991 0.749 3.146 0.958 2.673 0.485-0.156-0.156-0.439-0.304-0.629-0.33-0.191-0.026-0.431-0.09-0.535-0.142s-0.358-0.137-0.566-0.189c-0.208-0.051-0.42-0.129-0.472-0.172s-0.603-0.142-1.226-0.22c-0.807-0.101-0.59 0.063 0.755 0.568m258.44-0.375c-0.11 0.11-0.355 0.221-0.545 0.247-0.191 0.026-0.431 0.089-0.535 0.141s-0.358 0.137-0.566 0.189c-0.207 0.052-0.462 0.137-0.566 0.188-0.104 0.052-0.358 0.137-0.566 0.189s-0.462 0.137-0.566 0.189-0.359 0.137-0.566 0.189c-0.208 0.051-0.462 0.136-0.566 0.188s-0.344 0.116-0.535 0.142c-0.493 0.067-0.984 0.613-0.551 0.613 0.198 0 2.052-0.582 4.119-1.294 2.068-0.712 3.283-1.268 2.7-1.237-0.582 0.032-1.148 0.147-1.257 0.256m-249.57 3.205c1.468 0.58 2.541 0.731 2.106 0.296-0.155-0.155-0.438-0.304-0.628-0.33-0.191-0.026-0.389-0.082-0.441-0.125s-0.603-0.142-1.226-0.22c-1.108-0.139-1.104-0.131 0.189 0.379m240.21-0.259c-0.15 0.15-0.386 0.287-0.524 0.306-0.649 0.086-2.071 0.861-1.572 0.857 1.015-9e-3 3.176-0.938 2.767-1.19-0.219-0.135-0.521-0.123-0.671 0.027m-236.24 1.21c-0.131 0.21-0.1 0.385 0.068 0.388s0.73 0.113 1.249 0.245c0.55 0.139 0.812 0.098 0.628-0.1-0.172-0.186-0.427-0.341-0.566-0.344-0.138-4e-3 -0.452-0.134-0.697-0.29-0.245-0.155-0.552-0.11-0.682 0.101m232.45 6e-3c-0.133 0.214-0.388 0.299-0.566 0.188-0.179-0.11-0.434-0.025-0.566 0.189-0.133 0.214-0.388 0.299-0.566 0.189-0.179-0.111-0.434-0.026-0.567 0.188-0.132 0.215-0.387 0.3-0.566 0.189-0.178-0.11-0.431-0.028-0.562 0.183-0.329 0.533 0.435 0.436 2.618-0.332 1.051-0.37 1.681-0.773 1.441-0.921-0.234-0.145-0.534-0.088-0.666 0.127m-230 0.692c0 0.369 0.878 0.817 1.603 0.817 0.429 0 0.028-0.562-0.408-0.572-0.139-3e-3 -0.464-0.14-0.724-0.305-0.259-0.165-0.471-0.138-0.471 0.06m225.48 0.798c-0.139 0.225-0.399 0.318-0.578 0.208-0.179-0.111-0.432-0.029-0.562 0.182s-0.015 0.381 0.257 0.378c0.699-8e-3 1.65-0.662 1.37-0.942-0.129-0.129-0.348-0.051-0.487 0.174m-219.26 1.515c0.918 0.411 1.925 0.492 1.558 0.125-0.146-0.146-0.726-0.31-1.289-0.364-0.883-0.085-0.92-0.052-0.269 0.239m214.28 0.105c-0.101 0.164-0.33 0.208-0.509 0.097-0.179-0.11-0.432-0.028-0.563 0.183-0.314 0.509 0.454 0.441 2.072-0.185 1.261-0.487 1.272-0.507 0.253-0.452-0.587 0.032-1.151 0.192-1.253 0.357m-210.88 0.657c-0.13 0.211-0.1 0.386 0.068 0.389s0.73 0.113 1.249 0.244c0.55 0.14 0.812 0.098 0.629-0.099-0.173-0.187-0.428-0.342-0.566-0.345s-0.452-0.133-0.697-0.289-0.553-0.111-0.683 0.1m207.11 0.373c-0.109 0.11-0.354 0.221-0.544 0.247-0.191 0.025-0.431 0.089-0.535 0.141s-0.358 0.137-0.566 0.189-0.462 0.136-0.566 0.188-0.359 0.137-0.566 0.189c-0.208 0.052-0.462 0.137-0.566 0.189s-0.359 0.137-0.566 0.188c-0.208 0.052-0.462 0.137-0.566 0.189s-0.359 0.137-0.566 0.189c-0.208 0.052-0.463 0.137-0.566 0.188-0.104 0.052-0.316 0.131-0.472 0.175-0.821 0.235-2.116 0.913-1.781 0.934 0.213 0.013 2.591-0.728 5.283-1.647s4.418-1.646 3.835-1.615c-0.582 0.032-1.148 0.147-1.258 0.256m-204.66 0.311c0 0.365 5.39 2.371 6.228 2.317 0.316-0.02-1.113-0.769-1.7-0.891-0.103-0.022-0.401-0.175-0.66-0.339-0.259-0.165-0.472-0.184-0.472-0.043 0 0.142-0.254 0.046-0.566-0.212-0.311-0.259-0.566-0.344-0.566-0.189s-0.254 0.07-0.566-0.189c-0.311-0.258-0.566-0.343-0.566-0.188 0 0.154-0.255 0.069-0.566-0.189-0.342-0.284-0.566-0.315-0.566-0.077m8.117 2.712c-0.13 0.211-0.1 0.386 0.068 0.389s0.73 0.113 1.249 0.244c0.55 0.14 0.812 0.099 0.629-0.099-0.173-0.186-0.428-0.341-0.566-0.345-0.138-3e-3 -0.452-0.133-0.697-0.289s-0.553-0.111-0.683 0.1m187.17 7e-3c-0.132 0.214-0.387 0.299-0.566 0.188-0.179-0.11-0.432-0.028-0.562 0.183-0.272 0.44 0.417 0.461 1.48 0.044 0.467-0.182 0.578-0.379 0.31-0.545-0.232-0.143-0.529-0.085-0.662 0.13m-181.15 2.091c2.067 0.717 3.921 1.305 4.119 1.305 0.433 0-0.058-0.546-0.551-0.613-0.191-0.026-0.431-0.09-0.535-0.142s-0.359-0.137-0.566-0.189c-0.208-0.052-0.462-0.136-0.566-0.188s-0.359-0.137-0.566-0.189c-0.208-0.052-0.462-0.137-0.566-0.189s-0.359-0.136-0.566-0.188c-0.208-0.052-0.463-0.137-0.566-0.189-0.104-0.052-0.359-0.137-0.566-0.189-0.208-0.052-0.42-0.129-0.472-0.172s-0.604-0.142-1.226-0.221c-0.623-0.078 0.559 0.446 2.627 1.164m177.39-1.043c-0.15 0.15-0.429 0.294-0.619 0.319-0.19 0.026-0.431 0.09-0.535 0.142-0.103 0.052-0.358 0.137-0.566 0.189-0.207 0.052-0.462 0.136-0.566 0.188-0.103 0.052-0.358 0.137-0.566 0.189-0.207 0.052-0.462 0.137-0.566 0.189-0.103 0.052-0.358 0.136-0.566 0.188-0.207 0.052-0.462 0.137-0.566 0.189s-0.358 0.137-0.566 0.189c-0.207 0.052-0.462 0.137-0.566 0.188-0.104 0.052-0.344 0.116-0.534 0.142-0.494 0.067-0.985 0.613-0.552 0.613 0.934 0 7.788-2.536 7.438-2.752-0.218-0.136-0.52-0.123-0.67 0.027m-170.96 3.089c0.919 0.411 1.925 0.491 1.558 0.125-0.146-0.146-0.726-0.31-1.289-0.364-0.883-0.085-0.92-0.052-0.269 0.239m161.46 0.098c-0.233 0.377 0.595 0.332 1.562-0.086 0.643-0.278 0.597-0.318-0.313-0.266-0.587 0.033-1.149 0.191-1.249 0.352m-154.11 2.195c2.38 0.822 4.488 1.494 4.686 1.494 0.431 0-0.062-0.546-0.554-0.613-0.19-0.026-0.431-0.09-0.534-0.142-0.104-0.052-0.359-0.136-0.566-0.188-0.208-0.052-0.463-0.137-0.567-0.189-0.103-0.052-0.358-0.137-0.566-0.189-0.207-0.052-0.462-0.136-0.566-0.188-0.103-0.052-0.358-0.137-0.566-0.189-0.207-0.052-0.462-0.137-0.566-0.189-0.103-0.052-0.358-0.137-0.566-0.188-0.207-0.052-0.462-0.137-0.566-0.189s-0.358-0.137-0.566-0.189c-0.207-0.052-0.42-0.129-0.471-0.172-0.052-0.043-0.604-0.142-1.227-0.22-0.623-0.079 0.815 0.53 3.195 1.351m150.34-1.158c-0.109 0.11-0.354 0.22-0.544 0.246-0.191 0.026-0.431 0.09-0.535 0.142s-0.359 0.137-0.566 0.189c-0.208 0.051-0.462 0.136-0.566 0.188s-0.359 0.137-0.566 0.189c-0.208 0.052-0.462 0.137-0.566 0.189s-0.359 0.136-0.566 0.188c-0.208 0.052-0.463 0.137-0.566 0.189-0.104 0.052-0.359 0.137-0.566 0.189-0.208 0.052-0.463 0.136-0.566 0.188-0.104 0.052-0.345 0.116-0.535 0.142-0.492 0.067-0.985 0.613-0.553 0.613 0.197 0 2.305-0.667 4.685-1.482 2.38-0.816 3.851-1.457 3.268-1.426-0.582 0.032-1.148 0.147-1.258 0.256m-143.72 3.023c-0.13 0.211-0.099 0.386 0.068 0.389 0.168 3e-3 0.73 0.113 1.249 0.244 0.55 0.14 0.813 0.098 0.629-0.099-0.173-0.186-0.428-0.342-0.566-0.345s-0.452-0.133-0.697-0.289-0.552-0.111-0.683 0.1m134.34 6e-3c-0.132 0.215-0.387 0.3-0.566 0.189-0.179-0.11-0.432-0.028-0.562 0.183-0.272 0.44 0.417 0.461 1.48 0.044 0.467-0.182 0.578-0.379 0.309-0.545-0.231-0.143-0.529-0.085-0.661 0.129m-128.32 2.091c2.067 0.718 3.921 1.306 4.119 1.306 0.433 0-0.058-0.546-0.551-0.614-0.191-0.026-0.431-0.089-0.535-0.141s-0.358-0.137-0.566-0.189-0.462-0.137-0.566-0.188c-0.104-0.052-0.359-0.137-0.566-0.189-0.208-0.052-0.462-0.137-0.566-0.189s-0.359-0.137-0.566-0.188c-0.208-0.052-0.462-0.137-0.566-0.189s-0.359-0.137-0.566-0.189c-0.208-0.052-0.42-0.129-0.472-0.172s-0.604-0.143-1.226-0.221c-0.623-0.078 0.559 0.446 2.627 1.163m125.43-1.156c-0.099 0.099-0.594 0.257-1.1 0.35s-0.963 0.203-1.015 0.244-0.264 0.118-0.472 0.17c-0.207 0.051-0.462 0.136-0.566 0.188-0.103 0.052-0.358 0.137-0.566 0.189-0.207 0.052-0.462 0.137-0.566 0.189-0.104 0.051-0.358 0.136-0.566 0.188-0.207 0.052-0.462 0.137-0.566 0.189s-0.344 0.115-0.534 0.141c-0.494 0.068-0.985 0.614-0.552 0.614 0.678 0 7.88-2.585 7.281-2.613-0.328-0.016-0.678 0.052-0.778 0.151m-119.38 2.833c-0.131 0.211-0.1 0.386 0.068 0.389 0.168 2e-3 0.73 0.112 1.249 0.244 0.55 0.139 0.812 0.098 0.629-0.1-0.173-0.186-0.428-0.341-0.566-0.344-0.139-3e-3 -0.453-0.133-0.698-0.289s-0.552-0.111-0.682 0.1m110.18 6e-3c-0.133 0.214-0.388 0.299-0.566 0.189-0.179-0.111-0.432-0.029-0.563 0.182-0.272 0.441 0.417 0.461 1.481 0.045 0.466-0.183 0.578-0.38 0.309-0.546-0.231-0.143-0.529-0.084-0.661 0.13m-106.36 1.039c-0.23 0.372 8.377 3.294 8.713 2.958 0.123-0.123 0.11-0.245-0.028-0.271-0.139-0.026-0.379-0.071-0.535-0.1s-0.495-0.187-0.755-0.352c-0.259-0.165-0.471-0.184-0.471-0.043 0 0.142-0.255 0.046-0.566-0.212-0.312-0.259-0.566-0.343-0.566-0.189 0 0.155-0.255 0.07-0.567-0.188-0.311-0.259-0.566-0.344-0.566-0.189 0 0.154-0.254 0.07-0.566-0.189-0.311-0.258-0.566-0.343-0.566-0.189 0 0.155-0.254 0.07-0.566-0.188-0.311-0.259-0.566-0.343-0.566-0.189 0 0.155-0.254 0.07-0.566-0.189-0.311-0.258-0.566-0.343-0.566-0.188 0 0.154-0.239 0.082-0.532-0.161s-0.622-0.297-0.731-0.121m102.34 0.273c-0.099 0.099-0.594 0.256-1.101 0.35-0.506 0.093-0.963 0.203-1.015 0.244-0.051 0.041-0.264 0.118-0.471 0.169-0.208 0.052-0.462 0.137-0.566 0.189s-0.359 0.137-0.566 0.189c-0.208 0.052-0.463 0.137-0.566 0.189-0.104 0.051-0.359 0.136-0.566 0.188-0.208 0.052-0.463 0.137-0.566 0.189-0.104 0.052-0.359 0.137-0.566 0.189-0.208 0.051-0.463 0.136-0.566 0.188-0.104 0.052-0.345 0.116-0.535 0.142-0.492 0.067-0.985 0.613-0.554 0.613 0.678 0 9.013-2.961 8.416-2.99-0.329-0.016-0.679 0.052-0.778 0.151m-92.021 3.392c1.469 0.58 2.542 0.731 2.107 0.296-0.156-0.156-0.439-0.304-0.629-0.33s-0.389-0.083-0.44-0.126c-0.052-0.043-0.604-0.142-1.227-0.22-1.108-0.139-1.104-0.131 0.189 0.38m81.642-0.085c-0.102 0.165-0.331 0.209-0.51 0.098s-0.432-0.028-0.562 0.183c-0.315 0.509 0.454 0.44 2.071-0.185 1.261-0.487 1.273-0.508 0.253-0.452-0.587 0.032-1.151 0.192-1.252 0.356m-74.867 2.17c1.755 0.624 3.354 1.136 3.554 1.136 0.434 0-0.054-0.546-0.549-0.614-0.191-0.026-0.431-0.089-0.535-0.141s-0.358-0.137-0.566-0.189c-0.207-0.052-0.462-0.137-0.566-0.189-0.104-0.051-0.358-0.136-0.566-0.188s-0.42-0.129-0.472-0.171c-0.096-0.077-0.388-0.145-2.358-0.548-0.623-0.128 0.303 0.279 2.058 0.904m68.885-0.374c-0.132 0.214-0.387 0.299-0.566 0.189-0.179-0.111-0.433-0.026-0.566 0.188-0.132 0.215-0.387 0.3-0.566 0.189-0.179-0.11-0.433-0.026-0.566 0.189-0.132 0.214-0.387 0.299-0.566 0.188-0.179-0.11-0.432-0.028-0.562 0.183-0.33 0.533 0.435 0.436 2.618-0.332 1.051-0.37 1.681-0.772 1.441-0.92-0.234-0.145-0.534-0.088-0.667 0.126m-63.392 1.881c-0.131 0.211-0.1 0.386 0.068 0.388 0.168 3e-3 0.73 0.113 1.249 0.245 0.55 0.139 0.812 0.098 0.629-0.1-0.173-0.186-0.428-0.341-0.566-0.344-0.139-3e-3 -0.452-0.134-0.698-0.289-0.245-0.156-0.552-0.111-0.682 0.1m57.354 6e-3c-0.132 0.214-0.387 0.299-0.566 0.189-0.178-0.111-0.431-0.029-0.562 0.182-0.272 0.441 0.417 0.461 1.481 0.045 0.466-0.183 0.578-0.38 0.309-0.546-0.231-0.143-0.529-0.084-0.662 0.13m-49.018 2.579c-0.228 0.369 2.747 1.366 3.08 1.032 0.119-0.118 0.102-0.236-0.036-0.262-0.475-0.089-1.007-0.236-1.195-0.33-0.104-0.052-0.316-0.118-0.472-0.148-0.156-0.029-0.484-0.18-0.729-0.336s-0.536-0.136-0.648 0.044m39.585 0.44c-0.133 0.214-0.388 0.299-0.567 0.188-0.178-0.11-0.433-0.025-0.566 0.189-0.132 0.214-0.387 0.299-0.566 0.189-0.178-0.111-0.431-0.029-0.562 0.182-0.306 0.496 0.422 0.445 2.051-0.143 0.761-0.275 1.124-0.579 0.875-0.732-0.234-0.145-0.533-0.088-0.665 0.127m-34.714 1.126c-0.13 0.211-0.099 0.386 0.069 0.388 0.168 3e-3 0.729 0.113 1.248 0.245 0.551 0.139 0.813 0.098 0.629-0.1-0.173-0.186-0.427-0.341-0.566-0.344-0.138-3e-3 -0.452-0.134-0.697-0.289-0.245-0.156-0.552-0.111-0.683 0.1m29.755 0.468c-0.233 0.377 0.595 0.331 1.562-0.087 0.644-0.278 0.597-0.317-0.313-0.266-0.587 0.033-1.149 0.192-1.249 0.353m-21.418 2.117c-0.228 0.369 2.746 1.366 3.08 1.032 0.118-0.118 0.102-0.236-0.037-0.262-0.475-0.089-1.006-0.236-1.195-0.33-0.104-0.052-0.316-0.118-0.471-0.148-0.156-0.029-0.484-0.18-0.729-0.336s-0.537-0.136-0.648 0.044m5.592 1.619c-0.112 0.182 0.769 0.33 1.957 0.33 1.189 0 2.034-0.127 1.878-0.283-0.403-0.403-3.591-0.442-3.835-0.047" fill="#faf6ed"/>
<path d="m198.43 48.585c-0.07 11.571-0.042 23.147 0.062 25.724l0.188 4.687 1.51 0.461c3.21 0.981 13.055 4.125 17.736 5.664 2.698 0.888 10.933 3.508 18.301 5.823s14.464 4.551 15.768 4.969c2.738 0.878 4.495 2.21 5.227 3.963 0.424 1.013 0.517 8.281 0.527 40.961 9e-3 30.637 0.117 39.865 0.472 40.325 0.454 0.588 7.887 3.019 33.855 11.069 18.689 5.793 20.142 6.311 21.383 7.623 2.028 2.145 2.014 1.82 2.014 45.024 0 31.498 0.099 40.014 0.471 40.307 0.391 0.308 18.801 6.14 27.831 8.816 1.349 0.4 5.378 1.678 8.954 2.841 3.576 1.162 6.76 2.014 7.075 1.893 0.785-0.302 0.887-220.27 0.103-220.91-0.26-0.211-2.255-0.919-4.434-1.573-2.18-0.654-7.104-2.201-10.944-3.438-3.839-1.238-7.207-2.248-7.483-2.247-0.277 2e-3 -2.23-0.571-4.34-1.273s-5.705-1.819-7.988-2.483-5.849-1.785-7.925-2.492c-2.075-0.708-4.877-1.537-6.226-1.844s-5.17-1.501-8.491-2.655c-3.32-1.153-6.377-2.17-6.792-2.26-1.115-0.241-11.125-3.34-18.679-5.782-3.632-1.174-6.689-2.149-6.793-2.167-0.103-0.018-2.37-0.742-5.037-1.609-2.666-0.867-7.336-2.274-10.377-3.127-3.041-0.852-6.888-2.04-8.548-2.638-1.66-0.599-4.547-1.52-6.415-2.047-1.868-0.528-4.5-1.367-5.849-1.865-1.349-0.499-3.981-1.352-5.849-1.896-3.032-0.884-6.404-1.939-20.566-6.433-3.94-1.251-8.054-2.445-8.422-2.445-0.106 0-0.25 9.467-0.319 21.038" fill="#247c9c"/>
<path d="m196.44 25.121c-0.705 0.705-0.919 52.463-0.224 54.29 0.535 1.408 0.427 1.37 29.266 10.36 14.535 4.531 26.971 8.519 27.635 8.863 2.701 1.396 2.52-1.473 2.73 43.334 0.173 36.834 0.242 40.323 0.814 40.895 0.582 0.582 8.79 3.238 40.129 12.986 13.503 4.201 13.884 4.346 15.283 5.844l0.944 1.009 0.189 41.658c0.187 41.479 0.192 41.66 0.968 42.437 1.024 1.024 44.997 14.806 46.705 14.639 0.809-0.079 1.326-0.41 1.652-1.059 0.519-1.032 0.669-221.15 0.151-223.01-0.443-1.589-4.594-3.029-41.175-14.28-1.349-0.415-29.644-9.261-62.878-19.659-63.965-20.011-61.28-19.22-62.189-18.311m4.632 3.02c1.173 0.326 3.917 1.159 6.096 1.851 14.162 4.494 17.534 5.549 20.566 6.433 1.868 0.544 4.5 1.397 5.849 1.896 1.349 0.498 3.981 1.337 5.849 1.865 1.868 0.527 4.755 1.448 6.415 2.047 1.66 0.598 5.507 1.786 8.548 2.638 3.041 0.853 7.711 2.26 10.377 3.127 2.667 0.867 4.934 1.591 5.037 1.609 0.104 0.018 3.161 0.993 6.793 2.167 7.554 2.442 17.564 5.541 18.679 5.782 0.415 0.09 3.472 1.107 6.792 2.26 3.321 1.154 7.142 2.348 8.491 2.655s4.151 1.136 6.226 1.844c2.076 0.707 5.642 1.828 7.925 2.492s5.878 1.781 7.988 2.483 4.063 1.275 4.34 1.273c0.276-1e-3 3.644 1.009 7.483 2.247 3.84 1.237 8.764 2.784 10.944 3.438 2.179 0.654 4.174 1.362 4.434 1.573 0.784 0.64 0.682 220.61-0.103 220.91-0.315 0.121-3.499-0.731-7.075-1.893-3.576-1.163-7.605-2.441-8.954-2.841-9.03-2.676-27.44-8.508-27.831-8.816-0.372-0.293-0.471-8.809-0.471-40.307 0-43.204 0.014-42.879-2.014-45.024-1.241-1.312-2.694-1.83-21.383-7.623-25.968-8.05-33.401-10.481-33.855-11.069-0.355-0.46-0.463-9.688-0.472-40.325-0.01-32.68-0.103-39.948-0.527-40.961-0.732-1.753-2.489-3.085-5.227-3.963-1.304-0.418-8.4-2.654-15.768-4.969s-15.603-4.935-18.301-5.823c-4.681-1.539-14.526-4.683-17.736-5.664l-1.51-0.461-0.188-4.687c-0.234-5.793-8e-3 -46.762 0.257-46.762 0.106 0 1.153 0.267 2.326 0.594" fill="#247ca4"/>
</g>
</svg>
